<svg xmlns="http://www.w3.org/2000/svg" version="1.1" style="display: block;" viewBox="0 0 2048 2048" width="1024" height="1024">
<path transform="translate(0,0)" fill="rgb(254,254,254)" d="M 0 0 L 2048 0 L 2048 2048 L 0 2048 L 0 0 z"/>
<path transform="translate(0,0)" fill="rgb(96,6,3)" d="M 205.355 1231.11 C 210.228 1230.82 214.759 1230.71 219.391 1232.48 C 226.15 1235.07 231.621 1240.09 234.509 1246.76 A 25.8137 25.8137 0 0 1 234.596 1267.16 C 231.099 1275.47 224.67 1280.03 216.499 1283.12 C 211.575 1283.98 206.783 1283.86 202.035 1282.19 C 195.273 1279.8 189.919 1274.91 187.054 1268.32 A 26.8626 26.8626 0 0 1 186.709 1247.77 C 190.286 1238.84 196.803 1234.57 205.355 1231.11 z"/>
<path transform="translate(0,0)" fill="rgb(254,254,254)" d="M 209.311 1238.22 C 212.95 1238.58 216.786 1239.02 219.968 1240.95 C 226.307 1244.79 227.787 1251.78 229.511 1258.43 C 228.766 1260.74 227.894 1263.06 226.853 1265.26 C 223.857 1271.59 219.207 1274.29 212.833 1276.59 C 209.461 1276.22 206.328 1275.81 203.259 1274.27 C 198.457 1271.86 194.571 1267.5 192.933 1262.36 A 17.7065 17.7065 0 0 1 194.606 1247.74 C 198.049 1242.11 203.191 1239.88 209.311 1238.22 z"/>
<path transform="translate(0,0)" fill="rgb(96,6,3)" d="M 1839.43 1231.13 C 1844.79 1230.85 1849.46 1231.15 1854.49 1233.18 A 26.0295 26.0295 0 0 1 1869.05 1247.62 A 25.6357 25.6357 0 0 1 1868.72 1267.92 C 1865.04 1275.89 1858.75 1280.06 1850.84 1283.22 C 1845.76 1283.97 1840.94 1283.88 1836.04 1282.19 A 25.2203 25.2203 0 0 1 1821.33 1269.12 C 1818.16 1262.49 1817.75 1254.31 1820.6 1247.49 C 1824.38 1238.47 1830.84 1234.63 1839.43 1231.13 z"/>
<path transform="translate(0,0)" fill="rgb(254,254,254)" d="M 1839.11 1239.09 C 1842.71 1238.85 1846.37 1238.5 1849.87 1239.58 C 1854.81 1241.12 1859.18 1244.66 1861.5 1249.31 A 18.229 18.229 0 0 1 1862.09 1264.11 C 1859.63 1270.4 1854.93 1273.6 1849.02 1276.33 C 1846.1 1276.8 1843.41 1276.83 1840.53 1276.07 C 1835.89 1274.84 1831.69 1271.79 1829.25 1267.65 A 20.2505 20.2505 0 0 1 1827.3 1251.73 C 1829.17 1245.12 1833.31 1242.17 1839.11 1239.09 z"/>
<path transform="translate(0,0)" fill="rgb(96,6,3)" d="M 1981.74 1238.67 C 1971.76 1220.97 1962.47 1201.8 1947.25 1187.92 C 1943.35 1184.37 1928.11 1175.64 1927.11 1171.8 C 1928.12 1169.42 1927.95 1169.4 1930.28 1168.35 C 1942.19 1169.83 1958.23 1187.14 1965.11 1196.32 C 1971.41 1204.72 1991.43 1234.93 1989.82 1244.07 C 1989.76 1244.41 1989.61 1244.73 1989.5 1245.06 C 1984.42 1246.02 1978.95 1245.21 1973.84 1244.61 C 1958.21 1242.77 1945.37 1241.83 1930.48 1248.04 L 1902.44 1346.71 C 1900.3 1354.11 1904.32 1364.59 1898.75 1369.58 C 1894.77 1370.06 1893.1 1369.07 1889.96 1366.64 A 194.366 194.366 0 0 1 1886.4 1363.79 C 1879.46 1385.71 1871.56 1408.94 1860.49 1429.17 C 1860.39 1429.06 1860.25 1428.98 1860.2 1428.84 C 1860.01 1428.24 1859.76 1427.63 1859.79 1427.01 C 1859.96 1423.14 1865.22 1415.55 1866.84 1411.74 C 1871.06 1401.87 1874.07 1391.16 1878.82 1381.55 C 1881.49 1376.14 1882.8 1370.81 1883.39 1364.82 C 1876.65 1368.29 1868.83 1412.16 1859.75 1419.11 C 1860.63 1415.79 1862.4 1412.89 1863.64 1409.7 C 1867.92 1398.71 1871.74 1387.45 1876.09 1376.5 C 1878.35 1370.81 1881.4 1365.43 1882.83 1359.46 C 1881.67 1357.85 1881.26 1357.01 1881.08 1355.03 L 1882.74 1353.26 A 475.452 475.452 0 0 1 1893.57 1360.77 C 1886.67 1330.37 1878.68 1295.91 1896.7 1267.68 A 69.6292 69.6292 0 0 1 1941.63 1236.81 C 1955.36 1233.88 1968.41 1234.18 1981.74 1238.67 z"/>
<path transform="translate(0,0)" fill="rgb(146,40,38)" d="M 1921.98 1253.03 C 1922 1260.36 1914.39 1278.28 1912.13 1286.19 C 1909.21 1296.36 1906.3 1306.65 1903.94 1316.96 C 1901.97 1325.55 1900.68 1335.05 1897.5 1343.24 L 1896.61 1342.62 C 1893.34 1327.24 1890.78 1310.86 1893.61 1295.2 C 1896.93 1276.89 1906.83 1263.43 1921.98 1253.03 z"/>
<path transform="translate(0,0)" fill="rgb(96,6,3)" d="M 1702.09 1337.07 C 1699.88 1326.29 1695.69 1302.52 1699.19 1292.84 C 1700.24 1291.94 1700.66 1291.11 1702.14 1291.17 C 1710.86 1291.55 1728.91 1316.61 1734.98 1323.73 C 1743.83 1320.22 1770.74 1306.92 1778.57 1310.31 C 1780.1 1310.98 1779.97 1311.94 1780.47 1313.39 C 1778.38 1324.77 1764.69 1339.85 1757.81 1349.49 C 1763.78 1357.97 1785.03 1381.99 1783.98 1391.4 L 1782.38 1392.68 C 1768.56 1390.59 1753.45 1383.42 1740.09 1378.9 C 1733.82 1388.38 1720.25 1413.27 1710.02 1417.75 C 1708.16 1416.87 1707.36 1416.36 1706.93 1414.2 C 1706.77 1413.42 1706.98 1412.15 1707.08 1411.35 C 1705.29 1397.53 1705.24 1383.18 1704.17 1369.25 C 1694.27 1368.08 1669.56 1367.34 1661.52 1362.33 C 1659.64 1361.16 1659.64 1360.8 1659.26 1358.77 C 1663.46 1351.35 1693.73 1340.68 1702.09 1337.07 z"/>
<path transform="translate(0,0)" fill="rgb(146,40,38)" d="M 1701.48 1292.35 C 1712.07 1305.01 1721.96 1318.6 1733.07 1330.76 C 1746.93 1324.73 1760.57 1318.59 1775.33 1315.08 C 1768.7 1325.08 1761.38 1338.62 1752.46 1346.52 C 1752.35 1347.66 1751.9 1348.81 1752.12 1349.93 C 1753.04 1354.48 1775.48 1381.94 1779.54 1388.06 C 1766.09 1380.84 1750.7 1378.08 1737.32 1371.09 C 1729.65 1384.11 1721.43 1400.56 1710.59 1411.06 C 1711.28 1403.23 1712.12 1370.32 1707.43 1365.5 C 1702.06 1359.98 1671.87 1359.97 1663.09 1359.38 L 1707.73 1339.46 C 1704.32 1324.25 1703.27 1307.83 1701.48 1292.35 z"/>
<path transform="translate(0,0)" fill="rgb(96,6,3)" d="M 341.656 1290.59 C 343.775 1290.84 344.135 1291 345.836 1292.09 C 349.799 1300.94 345.753 1326.25 344.825 1337.02 C 352.425 1340.64 384.487 1352.27 387.565 1357.82 C 388.308 1359.16 387.628 1359.86 387.177 1361.2 C 378.626 1368.01 354.541 1371.84 343.371 1373.68 C 342.911 1384 340.335 1411.38 334.775 1419.66 L 332.644 1419.67 C 320.47 1412.77 315.601 1393.47 305.9 1383.57 C 305.566 1383.23 305.222 1382.9 304.883 1382.56 C 296.61 1384.08 268.936 1391.18 262.179 1388.43 C 260.539 1387.77 260.786 1387.43 260.129 1385.94 C 262.174 1377.28 282.173 1359.08 288.893 1351.55 C 282.457 1342.12 269.203 1325.9 268.246 1314.63 C 268.87 1313.18 268.791 1312.31 270.373 1311.67 C 278.049 1308.57 303.01 1321.98 311.351 1325.59 C 321.492 1313.95 331.11 1301.88 341.656 1290.59 z"/>
<path transform="translate(0,0)" fill="rgb(201,78,53)" d="M 338.78 1303.75 C 340.778 1315.33 338.229 1329.1 338.244 1340.98 C 349.966 1348.35 364.636 1352.69 377.304 1358.48 C 363.817 1360.54 349.91 1364.44 336.995 1368.82 C 337.496 1381.64 333.675 1395.15 331.185 1407.68 C 324.455 1397.23 317.675 1384.2 308.856 1375.54 C 305.269 1374.6 301.793 1375.6 298.237 1376.29 C 288.942 1378.52 279.4 1379.99 269.999 1381.73 A 1112.07 1112.07 0 0 1 297.523 1352.64 C 291.176 1340.68 282.448 1329.17 275.233 1317.61 C 287.534 1322.5 301.952 1326.99 312.697 1334.71 C 321.694 1324.69 329.826 1313.86 338.78 1303.75 z"/>
<path transform="translate(0,0)" fill="rgb(96,6,3)" d="M 678.492 1225.07 C 688.323 1223.64 719.389 1222.31 727.896 1225.96 C 731.189 1238.5 729.254 1265.13 729.268 1279.13 C 729.305 1315.75 728.886 1352.44 729.747 1389.06 C 745.698 1389.06 797.76 1386.84 808.517 1390.15 C 810.545 1392.45 811.623 1394.43 812.034 1397.47 C 812.777 1402.96 813.025 1436.7 810.456 1440.04 C 802.557 1442.8 687.018 1443.39 676.934 1441.45 C 675.605 1440.44 675.055 1440.26 674.358 1438.65 C 672.162 1433.57 671.677 1232.52 674.203 1227.54 C 675.261 1225.46 676.433 1225.53 678.492 1225.07 z"/>
<path transform="translate(0,0)" fill="rgb(146,40,38)" d="M 699.314 1229.78 A 647.059 647.059 0 0 0 723.606 1229.85 C 721.717 1284.81 723.146 1340.25 723.515 1395.26 C 750.83 1394.87 778.779 1393.52 806.057 1395.11 A 3009.82 3009.82 0 0 0 805.607 1436 A 7979.82 7979.82 0 0 1 679.783 1436.06 C 677.817 1413.56 679.127 1390.07 679.016 1367.47 A 11298.9 11298.9 0 0 1 678.984 1230.02 L 699.314 1229.78 z"/>
<path transform="translate(0,0)" fill="rgb(146,40,38)" d="M 1435.49 1276.87 C 1426.5 1276.84 1391.31 1279.21 1385.67 1275.31 C 1381.98 1266.51 1380.92 1235.54 1384.88 1226.92 C 1385.55 1225.46 1387.13 1224.74 1388.64 1224.36 C 1396.84 1222.29 1416.99 1223.99 1426.69 1223.97 C 1460.64 1223.91 1495.03 1222.79 1528.93 1224.15 C 1532.83 1224.31 1536.58 1224.66 1540.27 1226 C 1543.58 1231.49 1544.71 1264.05 1542.68 1270.49 C 1541.87 1273.05 1540.48 1274.42 1538.12 1275.66 C 1529.79 1280.01 1503.24 1276.52 1492.46 1276.77 C 1494.93 1291.7 1492.87 1315.02 1492.89 1330.95 C 1492.94 1363.35 1494.2 1396.12 1493.15 1428.5 C 1493.03 1432.1 1492.72 1435.5 1491.71 1438.98 C 1490.11 1440.46 1489.57 1440.84 1487.32 1441.17 C 1480.16 1442.21 1440.6 1443.29 1435.21 1439.27 C 1433.01 1418.86 1435.05 1389.58 1435.05 1367.88 L 1435.03 1310.9 C 1435.03 1299.65 1434.47 1288.07 1435.49 1276.87 z"/>
<path transform="translate(0,0)" fill="rgb(114,22,22)" d="M 1435.49 1276.87 C 1426.5 1276.84 1391.31 1279.21 1385.67 1275.31 C 1381.98 1266.51 1380.92 1235.54 1384.88 1226.92 C 1385.55 1225.46 1387.13 1224.74 1388.64 1224.36 C 1396.84 1222.29 1416.99 1223.99 1426.69 1223.97 C 1460.64 1223.91 1495.03 1222.79 1528.93 1224.15 C 1532.83 1224.31 1536.58 1224.66 1540.27 1226 C 1543.58 1231.49 1544.71 1264.05 1542.68 1270.49 C 1541.87 1273.05 1540.48 1274.42 1538.12 1275.66 C 1529.79 1280.01 1503.24 1276.52 1492.46 1276.77 C 1491.75 1279.7 1491.8 1282.88 1491.65 1285.9 C 1491.06 1284.32 1490.88 1283.36 1490.87 1281.63 C 1490.86 1279.33 1491.31 1280.55 1489.73 1278.56 L 1488.98 1279.32 L 1489.02 1284.18 L 1487.66 1284.25 L 1488.57 1285.68 C 1487.42 1281.29 1487.62 1276.27 1487.38 1271.73 C 1504.05 1272.35 1520.16 1274.15 1536.87 1272.5 C 1536.99 1264.41 1538.95 1238.11 1536.48 1231.67 C 1535.8 1229.91 1535.83 1230.95 1536.24 1229.1 L 1538.64 1227.84 L 1538.2 1226.57 L 1538.71 1226.94 C 1527.13 1225.29 1514.85 1226.22 1503.16 1226.06 C 1472.96 1225.63 1442.98 1225.36 1412.77 1225.95 C 1406.08 1226.08 1397.73 1224.87 1391.31 1226.12 C 1389.31 1226.51 1386.87 1227.31 1385.93 1229.32 C 1384.18 1233.06 1384.63 1267.08 1385.77 1271.54 C 1394.3 1281.26 1425.1 1269.87 1436.18 1275.81 C 1438.77 1284.12 1436.94 1301.05 1436.88 1310.43 C 1435.12 1299.89 1436.63 1288.5 1435.59 1277.78 L 1435.49 1276.87 z"/>
<path transform="translate(0,0)" fill="rgb(146,40,38)" d="M 1839.89 925.018 C 1853.13 924.702 1892.55 922.673 1903.35 925.757 C 1904.83 926.183 1904.92 925.891 1905.46 927.073 C 1906.75 929.91 1907.26 1157.09 1906.75 1176.68 C 1906.64 1181.21 1906.26 1185.52 1904.96 1189.89 C 1895.81 1192.27 1848.95 1193.23 1840.46 1189.33 C 1839.13 1186.18 1838.93 1182.9 1838.8 1179.52 C 1837.66 1147.7 1838.85 1115.45 1838.79 1083.58 C 1838.74 1060.89 1836.41 935.867 1839.89 925.018 z"/>
<path transform="translate(0,0)" fill="rgb(146,40,38)" d="M 1251.81 1441.09 C 1249.29 1440.59 1249.47 1440.34 1247.76 1438.62 C 1245.79 1432.99 1246.23 1254.5 1246.93 1232.36 C 1247.04 1228.91 1247.75 1226.89 1250.39 1224.51 C 1264.21 1221.83 1281.73 1223.74 1295.92 1223.8 C 1321.79 1223.9 1348.27 1222.89 1374.05 1224.88 L 1373.58 1225.47 C 1375.8 1225.28 1374.95 1225.04 1376.21 1225.57 C 1377.7 1227.96 1378.29 1230.06 1378.62 1232.87 C 1379.48 1240.41 1381.06 1268.78 1376.02 1273.78 C 1374.41 1275.38 1372.01 1276.06 1369.79 1276.24 C 1363.85 1276.7 1357.5 1275.74 1351.49 1275.74 L 1303.01 1276.02 L 1303.03 1308.08 C 1320.7 1308.09 1342.98 1306.26 1360.12 1308.9 C 1361.62 1309.13 1364.33 1309.39 1365.09 1310.78 C 1367.34 1314.87 1367.15 1348.65 1365.65 1353.92 C 1357.51 1357.87 1315.52 1355.97 1303.3 1356 L 1303.38 1387.56 C 1316.57 1386.52 1329.89 1387.49 1343.11 1387.33 C 1352.23 1387.22 1362.08 1385.79 1371.11 1386.82 C 1374.19 1387.17 1377.49 1387.97 1379.87 1390.1 C 1385.25 1394.9 1383.23 1421.9 1382.86 1429.52 C 1382.67 1433.3 1382.13 1436.6 1380.46 1440 C 1378.59 1441.52 1376.66 1441.42 1374.35 1441.57 C 1351.47 1443.06 1327.78 1441.91 1304.82 1441.95 C 1288.64 1441.98 1270.76 1443.5 1254.76 1441.61 C 1253.77 1441.49 1252.79 1441.28 1251.81 1441.09 z"/>
<path transform="translate(0,0)" fill="rgb(96,6,3)" d="M 1251.81 1441.09 C 1249.29 1440.59 1249.47 1440.34 1247.76 1438.62 C 1245.79 1432.99 1246.23 1254.5 1246.93 1232.36 C 1247.04 1228.91 1247.75 1226.89 1250.39 1224.51 C 1264.21 1221.83 1281.73 1223.74 1295.92 1223.8 C 1321.79 1223.9 1348.27 1222.89 1374.05 1224.88 L 1373.58 1225.47 C 1375.8 1225.28 1374.95 1225.04 1376.21 1225.57 C 1377.7 1227.96 1378.29 1230.06 1378.62 1232.87 C 1379.48 1240.41 1381.06 1268.78 1376.02 1273.78 C 1374.41 1275.38 1372.01 1276.06 1369.79 1276.24 C 1363.85 1276.7 1357.5 1275.74 1351.49 1275.74 L 1303.01 1276.02 L 1303.03 1308.08 C 1320.7 1308.09 1342.98 1306.26 1360.12 1308.9 C 1361.62 1309.13 1364.33 1309.39 1365.09 1310.78 C 1367.34 1314.87 1367.15 1348.65 1365.65 1353.92 C 1357.51 1357.87 1315.52 1355.97 1303.3 1356 L 1303.38 1387.56 L 1307.82 1388.79 L 1309.07 1391.03 C 1307.52 1392.18 1305.35 1392.96 1303.34 1392.67 C 1300.67 1392.29 1299.61 1391.28 1298.37 1388.96 C 1296.75 1385.93 1297.73 1357.75 1298.79 1353.7 C 1306.38 1347.42 1348.62 1351.26 1360.91 1350.33 C 1361.09 1338.18 1361.52 1325.98 1361.11 1313.83 C 1345.99 1313.93 1310.12 1316.53 1297.65 1312.05 C 1294.17 1304.55 1297.08 1280.28 1296.93 1270.79 C 1321.37 1269.13 1350 1273.78 1372.98 1270.17 C 1374.34 1256.7 1374.25 1243.19 1373.95 1229.67 C 1333.82 1230.11 1293.66 1228.85 1253.54 1229.99 C 1252.41 1266.6 1253.11 1303.41 1253.05 1340.05 C 1253 1371.95 1252.1 1404.06 1252.81 1435.93 C 1258.12 1435.99 1282.96 1435.64 1286.05 1437.68 C 1274.36 1437.55 1262.69 1437.14 1251 1437.29 C 1250.95 1410.11 1251.86 1382.99 1251.97 1355.85 C 1252.03 1341.02 1250.52 1234.7 1252.54 1229.15 C 1292.09 1223.94 1332.82 1231.73 1372.55 1227.46 L 1372.12 1226.89 C 1344.25 1225.28 1316.33 1225.63 1288.44 1225.57 C 1279.06 1225.55 1269.15 1224.24 1259.85 1225.16 C 1256.94 1225.44 1253.32 1226.07 1251.05 1228.09 C 1247.87 1230.9 1247.98 1236.02 1248.22 1239.87 C 1249.48 1259.97 1249.04 1280.09 1249.05 1300.22 L 1248.99 1388.85 C 1248.96 1402.21 1246.67 1419.5 1248.04 1432.15 C 1248.32 1434.73 1249.24 1436.32 1250.82 1438.32 C 1257.71 1442.45 1285.45 1437.38 1293.1 1440.27 C 1279.63 1440.58 1265.14 1439.7 1251.81 1441.09 z"/>
<path transform="translate(0,0)" fill="rgb(96,6,3)" d="M 914.194 1221.2 C 919.473 1221.03 924.768 1221.28 930.046 1221.41 C 936.641 1230.34 1029.03 1423.55 1030.49 1430.1 C 1031.08 1432.74 1031.53 1435.13 1029.55 1437.31 C 1022.24 1445.36 986.005 1442.26 974.765 1441.82 C 968.945 1433 965.727 1422.74 962.09 1412.88 L 927.214 1413.01 L 881.014 1413.15 C 878.104 1420.77 874.718 1434.61 868.076 1439.55 C 865.77 1441.26 862.903 1442.18 860.074 1442.53 C 855.941 1443.05 826.422 1442.73 822.367 1441.87 C 819.058 1441.17 815.81 1439.79 813.958 1436.79 C 812.393 1434.26 812.561 1433.02 813.292 1430.26 C 815.796 1420.8 821.121 1411.5 825.257 1402.68 L 846.735 1356.81 L 884.258 1276.68 C 891.623 1260.91 898.512 1244.51 906.903 1229.27 C 908.968 1225.51 910.535 1223.44 914.194 1221.2 z"/>
<path transform="translate(0,0)" fill="rgb(146,40,38)" d="M 916.333 1227.13 C 919.653 1226.78 922.561 1226.33 925.842 1227.24 C 928.391 1229.19 929.671 1231.46 931.081 1234.32 C 950.539 1273.78 968.337 1314.28 987.433 1353.96 C 995.395 1370.51 1022.09 1419.4 1024.86 1432.84 C 1024.67 1433.07 1024.51 1433.34 1024.29 1433.54 C 1019.11 1438.4 986.846 1436.42 978.113 1436.32 C 974.307 1426.3 970.6 1416.31 965.897 1406.66 C 953.078 1407.73 940.363 1408.33 927.507 1408.74 C 910.736 1408.65 893.894 1407.64 877.139 1406.93 C 873.1 1416.91 868.648 1426.9 863.198 1436.19 L 837.022 1436.32 C 832.649 1436.32 822.061 1437.41 819.037 1434.38 C 822.695 1417.7 847.017 1372.19 855.486 1353.89 L 895.526 1267.57 C 901.007 1255.96 905.844 1243.55 912.132 1232.4 C 913.262 1230.4 914.705 1228.73 916.333 1227.13 z"/>
<path transform="translate(0,0)" fill="rgb(96,6,3)" d="M 920.063 1317.5 C 920.508 1317.64 920.968 1317.73 921.398 1317.91 C 928.645 1320.9 946.571 1364.38 950.214 1373.67 C 940.757 1375.11 931.438 1374.92 921.909 1374.84 C 913.173 1374.99 900.672 1376.65 892.533 1373.82 C 892.082 1369.59 915.965 1323.12 920.063 1317.5 z"/>
<path transform="translate(0,0)" fill="rgb(254,254,254)" d="M 921.149 1326.56 C 926.393 1332.2 937.07 1359.6 941.619 1368.7 L 922.5 1368.8 L 901.012 1368.9 C 907.978 1354.91 913.702 1340.34 921.149 1326.56 z"/>
<path transform="translate(0,0)" fill="rgb(96,6,3)" d="M 509.918 1223.38 C 538.512 1223.8 565.639 1222.96 592.919 1232.86 C 620.977 1243.04 648.865 1260.29 661.709 1288.48 C 668.274 1302.88 668.644 1318.56 662.94 1333.36 C 653.202 1358.63 630.199 1375.3 606.308 1386.03 C 591.734 1391.67 576.596 1394.62 561.131 1396.44 C 561.054 1407.25 562.353 1418.31 561.74 1429.06 C 561.497 1433.32 560.851 1438.54 557.139 1441.28 C 554.317 1443.36 518.333 1443.14 512.798 1442.19 C 509.837 1441.68 506.937 1440.54 505.389 1437.78 C 502.514 1432.64 505.007 1396.65 505.016 1387.54 C 505.033 1370.86 503.261 1233.53 505.379 1227.6 C 506.352 1224.87 507.516 1224.63 509.918 1223.38 z"/>
<path transform="translate(0,0)" fill="rgb(146,40,38)" d="M 510.841 1229.85 C 542.903 1229.78 570.598 1230.03 600.762 1242.51 C 623.403 1251.88 647.124 1268.68 656.697 1292.11 C 662.087 1305.3 662.427 1319.44 656.843 1332.69 C 647.328 1355.25 625.456 1371.68 603.264 1380.49 C 587.568 1386.09 572.019 1388.74 555.61 1391.33 C 556.235 1406.13 556.015 1421.17 555.454 1435.97 A 992.557 992.557 0 0 1 510.986 1436.14 L 510.841 1229.85 z"/>
<path transform="translate(0,0)" fill="rgb(96,6,3)" d="M 554.498 1269.85 C 556.83 1269.78 559.174 1269.73 561.506 1269.84 C 577.514 1270.64 596.342 1279.03 606.823 1291.23 C 612.146 1297.43 615.66 1305.12 614.975 1313.42 C 614.088 1324.15 606.96 1331.57 599.209 1338.18 C 585.826 1346.85 570.611 1352.6 554.645 1353.75 C 553.99 1342.57 554.764 1331.2 554.822 1320 A 2899.19 2899.19 0 0 0 554.498 1269.85 z"/>
<path transform="translate(0,0)" fill="rgb(254,254,254)" d="M 560.729 1275.25 C 575.832 1277.94 592.013 1283.81 602.333 1295.73 C 606.628 1300.69 609.83 1307.11 608.976 1313.84 C 607.831 1322.85 601.271 1328.48 594.508 1333.67 C 584.047 1340.87 573.054 1344.7 560.77 1347.56 A 3323.42 3323.42 0 0 1 560.729 1275.25 z"/>
<path transform="translate(0,0)" fill="rgb(96,6,3)" d="M 1174.58 1224.17 C 1186.03 1222.67 1216.97 1222.09 1227 1226.27 C 1228.99 1228.76 1228.85 1230.46 1229 1233.67 C 1230.63 1269.28 1228.87 1305.76 1228.86 1341.46 L 1228.96 1397.98 C 1228.99 1408.66 1229.55 1419.69 1228.79 1430.34 C 1228.49 1434.54 1228.29 1438.99 1225.37 1442.16 C 1221.73 1443.17 1218.35 1443.72 1214.55 1443.67 C 1210.87 1443.62 1206.87 1443.1 1203.65 1441.18 C 1188.96 1432.4 1176.51 1418.37 1164.01 1406.79 C 1140.98 1385.43 1117.74 1364.41 1095.78 1341.92 A 3451.23 3451.23 0 0 0 1095.75 1401.84 C 1095.78 1413.84 1097.03 1427.45 1094.51 1439.23 C 1092.51 1441.26 1092.05 1441.33 1089.25 1442.01 C 1079.24 1442.09 1047.57 1444.15 1040.16 1440.54 C 1038.53 1436.29 1038.3 1431.64 1038.14 1427.11 C 1036.95 1394.41 1038.36 1361.16 1038.39 1328.4 C 1038.41 1298.62 1036.96 1268.31 1038.09 1238.57 C 1038.23 1234.77 1038.6 1231.32 1039.79 1227.67 C 1041.58 1225.8 1042.82 1225.31 1045.43 1225.05 C 1049.01 1224.7 1052.42 1225.9 1055.32 1227.9 C 1070.82 1238.59 1085.2 1254.49 1099.14 1267.29 A 6431.73 6431.73 0 0 0 1171.86 1332.22 A 5759.67 5759.67 0 0 0 1171.96 1266.4 C 1171.95 1254.82 1171.15 1242.58 1172.26 1231.08 C 1172.52 1228.4 1173.33 1226.53 1174.58 1224.17 z"/>
<path transform="translate(0,0)" fill="rgb(146,40,38)" d="M 1178.03 1229.72 L 1223 1229.62 L 1222.28 1430.14 C 1221.94 1433.47 1222.25 1434.48 1219.95 1437.01 C 1215.88 1438.62 1211.2 1437.43 1206.96 1436.92 C 1193.16 1427.12 1180.99 1414.89 1168.7 1403.3 C 1148.1 1383.89 1127.71 1363.93 1106.36 1345.35 C 1103.16 1342.57 1099.11 1337.51 1095.27 1335.93 C 1094.5 1335.62 1093.6 1335.78 1092.77 1335.71 L 1090.7 1337.52 C 1087.69 1348.67 1089.93 1418.98 1089.62 1436.13 A 3556.35 3556.35 0 0 1 1044.02 1436.02 L 1044.18 1305.19 C 1044.16 1280.31 1042.36 1254.12 1044.89 1229.4 C 1057.02 1234.29 1072.04 1251.12 1082.11 1260.29 A 6166.25 6166.25 0 0 0 1140.42 1312.46 C 1149.56 1320.56 1158.88 1330.31 1168.91 1337.11 C 1171.16 1338.63 1172.93 1339.58 1175.7 1339.71 L 1177.01 1338.45 C 1179.36 1326.08 1178.05 1311.73 1178.05 1299.09 L 1178.03 1229.72 z"/>
<path transform="translate(0,0)" fill="rgb(146,40,38)" d="M 1053.61 1125.12 C 1064.46 1125 1079.94 1121.83 1090.13 1124.83 C 1093.24 1125.74 1095.53 1127.46 1096.94 1130.43 C 1099.66 1136.19 1098.45 1183.62 1096.17 1190.15 C 1095.06 1190.89 1094.25 1191.16 1092.93 1191.34 C 1074.15 1193.86 1038.77 1191.73 1018.58 1191.74 L 965.557 1191.96 C 957.331 1191.99 948.77 1192.59 940.596 1191.97 C 939.203 1191.86 938.377 1191.43 937.287 1190.59 C 934.125 1180.98 933.741 946.53 935.784 933.909 C 936.236 931.119 936.398 930.029 938.873 928.481 C 941.574 926.791 946.398 926.512 949.523 926.318 C 966.765 925.246 984.653 926.304 1001.97 926.21 C 1019.72 926.113 1076.54 923.538 1090.5 927.182 C 1092.03 927.582 1093.93 928.085 1094.58 929.643 C 1096.62 934.558 1095.74 981.044 1093.56 986.034 C 1085.53 990.824 1018.4 988.317 1004.08 988.541 C 1004.06 1000.89 1003.71 1013.34 1004.49 1025.67 C 1007.81 1027.12 1011.64 1026.7 1015.24 1026.76 C 1026.56 1026.42 1062.85 1024.04 1071.63 1027.8 L 1073.17 1029.64 C 1074.82 1040.87 1074.83 1073.81 1071.33 1083.77 C 1067.05 1087.62 1047.84 1085.38 1041.78 1085.21 C 1031.13 1085.32 1018.52 1086.61 1008.18 1084.35 C 1006.73 1084.72 1004.73 1084.64 1004.02 1086.09 C 1000.65 1092.92 1002.86 1115.76 1003.21 1123.99 C 1004.7 1126.38 1006.22 1126.13 1008.83 1126.82 C 1017.18 1122.8 1043.43 1124.8 1053.61 1125.12 z"/>
<path transform="translate(0,0)" fill="rgb(114,22,22)" d="M 1007.03 1078.93 C 1014.88 1079.19 1034.94 1077.68 1040.34 1081.93 L 1041.78 1085.21 C 1031.13 1085.32 1018.52 1086.61 1008.18 1084.35 C 1008.13 1082.25 1007.65 1080.94 1007.03 1078.93 z"/>
<path transform="translate(0,0)" fill="rgb(96,6,3)" d="M 1008.83 1126.82 C 1008.64 1128.73 1008.57 1129.03 1007.47 1130.73 C 1004.4 1131.4 1001.95 1132.03 998.804 1131.35 C 998.498 1130.87 998.093 1130.43 997.886 1129.9 C 995.841 1124.62 996.063 1086.05 997.94 1080.41 C 1000.77 1078.74 1003.86 1079.01 1007.03 1078.93 C 1007.65 1080.94 1008.13 1082.25 1008.18 1084.35 C 1006.73 1084.72 1004.73 1084.64 1004.02 1086.09 C 1000.65 1092.92 1002.86 1115.76 1003.21 1123.99 C 1004.7 1126.38 1006.22 1126.13 1008.83 1126.82 z"/>
<path transform="translate(0,0)" fill="rgb(114,22,22)" d="M 1015.24 1026.76 C 1026.56 1026.42 1062.85 1024.04 1071.63 1027.8 L 1073.17 1029.64 C 1072.88 1032.57 1073.15 1037.97 1071.34 1040.16 C 1069.96 1038.91 1069.12 1037.74 1068.09 1036.23 C 1066.28 1033.55 1064.64 1032.25 1061.36 1031.56 C 1054.48 1030.11 1016.03 1031.94 1005.36 1031.92 C 1009.39 1030.72 1011.23 1028.33 1015.24 1026.76 z"/>
<path transform="translate(0,0)" fill="rgb(96,6,3)" d="M 1053.61 1125.12 C 1064.46 1125 1079.94 1121.83 1090.13 1124.83 C 1093.24 1125.74 1095.53 1127.46 1096.94 1130.43 C 1099.66 1136.19 1098.45 1183.62 1096.17 1190.15 C 1095.06 1190.89 1094.25 1191.16 1092.93 1191.34 C 1074.15 1193.86 1038.77 1191.73 1018.58 1191.74 L 965.557 1191.96 C 957.331 1191.99 948.77 1192.59 940.596 1191.97 C 939.203 1191.86 938.377 1191.43 937.287 1190.59 C 934.125 1180.98 933.741 946.53 935.784 933.909 C 936.236 931.119 936.398 930.029 938.873 928.481 C 941.574 926.791 946.398 926.512 949.523 926.318 C 966.765 925.246 984.653 926.304 1001.97 926.21 C 1019.72 926.113 1076.54 923.538 1090.5 927.182 C 1092.03 927.582 1093.93 928.085 1094.58 929.643 C 1096.62 934.558 1095.74 981.044 1093.56 986.034 C 1085.53 990.824 1018.4 988.317 1004.08 988.541 C 1004.06 1000.89 1003.71 1013.34 1004.49 1025.67 C 1007.81 1027.12 1011.64 1026.7 1015.24 1026.76 C 1011.23 1028.33 1009.39 1030.72 1005.36 1031.92 C 1002.98 1031.83 1001.06 1032.28 999.165 1030.75 C 996.82 1015.56 997.716 997.438 998.472 982.035 C 1028.61 982.116 1059.16 983.809 1089.22 982.036 A 816.651 816.651 0 0 0 1089.92 932.093 L 991.771 931.646 C 975.278 931.665 957.925 930.754 941.551 932.459 C 940.968 957.612 941.652 982.808 941.562 1007.97 L 941.909 1186.36 L 1031.91 1186.3 C 1051.76 1186.36 1071.66 1187 1091.5 1186.15 C 1092.9 1167.71 1092 1148.76 1091.96 1130.26 C 1080.42 1130.28 1068.97 1130.29 1057.46 1129.36 C 1067.21 1128.85 1080.82 1126.74 1090.17 1128.91 C 1093.3 1132.04 1092.95 1135.54 1092.97 1139.79 L 1092.97 1141.02 L 1094.55 1141.15 C 1096.24 1139.67 1096.88 1137.76 1097.18 1135.5 C 1097.48 1133.21 1096.94 1131.03 1095.3 1129.34 C 1087.18 1120.96 1064.93 1129.1 1053.61 1125.12 z"/>
<path transform="translate(0,0)" fill="rgb(146,40,38)" d="M 501.053 924.526 C 504.626 924.281 509.637 923.382 512.74 925.68 C 514.886 927.269 515.963 930.119 516.325 932.687 C 517.128 938.38 515.811 944.811 515.678 950.6 C 515.446 960.75 516.859 971.12 515.951 981.238 C 515.732 983.681 515.609 985.663 514.105 987.687 C 500.24 992.72 434.573 989.796 415.007 989.695 A 1461.3 1461.3 0 0 0 414.92 1026.06 C 428.822 1026.22 472.726 1024.37 483.338 1028.24 C 484.434 1030.36 484.87 1032.11 485.071 1034.5 C 485.46 1039.11 486.35 1080.46 484.16 1082.41 C 478.101 1087.79 425.653 1085.22 415.094 1085.19 L 415.057 1125.06 C 434.543 1125.1 496.006 1122.07 510.293 1127.87 C 514.164 1133.41 512.012 1171.93 511.999 1180.25 C 512.038 1182 512.295 1184.31 511.907 1186.01 C 511.311 1188.6 510.432 1189.1 508.41 1190.49 C 492.537 1192.88 462.353 1190.74 444.787 1190.66 L 384.841 1190.47 C 373.347 1190.42 360.193 1191.63 348.951 1189.19 C 347.577 1188.04 346.948 1187.77 346.221 1186.05 C 341.821 1175.64 344.897 1038.87 344.884 1014.14 C 344.871 988.659 343.664 962.96 344.402 937.508 C 344.508 933.853 344.339 929.96 345.88 926.579 C 353.076 923.092 481.033 924.807 501.053 924.526 z"/>
<path transform="translate(0,0)" fill="rgb(96,6,3)" d="M 736.704 924.195 C 770.904 923.203 804.534 923.076 837.402 934.136 C 871.646 945.66 904.745 967.488 920.979 1000.77 C 930.722 1020.75 931.638 1043.51 924.374 1064.46 C 914.21 1093.76 889.983 1113.23 862.847 1126.26 C 843.375 1135.13 823.197 1139.33 802.13 1142.03 C 801.966 1155.12 803.638 1169.8 801.881 1182.69 C 801.542 1185.17 801.324 1186.57 798.966 1187.84 C 794.195 1190.4 742.572 1189.81 735.577 1187.74 C 735.005 1186.65 734.539 1185.69 734.246 1184.49 C 731.448 1172.95 733.944 1130.87 733.954 1116.19 A 10478.1 10478.1 0 0 1 734.275 999.715 C 734.286 977.466 733.401 954.905 734.374 932.688 C 734.521 929.331 734.876 927.036 736.704 924.195 z"/>
<path transform="translate(0,0)" fill="rgb(146,40,38)" d="M 740.081 928.801 C 740.598 928.661 741.118 928.53 741.632 928.381 C 756.575 924.052 813.921 933.104 830.192 938.211 C 863.372 948.625 898.005 968.963 914.281 1000.93 C 923.685 1019.39 925.948 1040.55 919.439 1060.34 C 910.245 1088.29 887.228 1107.06 861.845 1119.94 C 840.501 1130.24 819.123 1133.33 795.926 1136.48 C 796.209 1151.88 796.459 1167.25 796.101 1182.65 C 777.473 1183.71 758.581 1183.56 739.92 1183.87 C 738.245 1146.06 739.983 1107.49 739.979 1069.61 C 739.974 1022.82 738.482 975.548 740.081 928.801 z"/>
<path transform="translate(0,0)" fill="rgb(96,6,3)" d="M 797.324 981.916 C 800.202 981.801 803.12 981.688 805.993 981.943 C 824.421 983.578 847.001 996.057 858.676 1010.33 C 865.389 1018.53 870.222 1028.55 869.027 1039.39 C 867.554 1052.77 858.581 1062.66 848.623 1070.79 C 837.598 1078.67 824.675 1083.74 811.695 1087.43 C 806.524 1088.89 801.042 1090.68 796.114 1087.94 C 792.301 1074.47 796.313 1056.27 796.207 1042.2 C 796.076 1024.77 793.775 1006.95 795.082 989.557 C 795.307 986.56 795.959 984.566 797.324 981.916 z"/>
<path transform="translate(0,0)" fill="rgb(254,254,254)" d="M 801.066 987.711 C 819.218 989.226 839.191 998.618 851.765 1011.87 C 858.244 1018.69 863.345 1027.64 862.734 1037.33 C 861.98 1049.28 853.735 1057.38 845.355 1064.85 C 832.013 1075.2 817.618 1080.37 801.229 1083.81 L 801.066 987.711 z"/>
<path transform="translate(0,0)" fill="rgb(146,40,38)" d="M 153.688 1190.85 C 152.264 1191.02 151.379 1191.03 149.951 1190.7 C 148.263 1190.31 147.507 1189.27 146.758 1187.67 C 145.891 1185.83 145.774 1183.53 145.765 1181.53 L 146.072 1008.15 L 146.119 953.885 C 146.113 946.715 145.255 938.832 145.847 931.776 C 145.959 930.435 146.416 929.299 146.903 928.063 C 149.419 925.655 150.846 924.971 154.371 924.898 C 207.877 923.787 269.306 928.596 310.078 967.605 C 329.705 986.383 341.029 1011.23 341.438 1038.39 C 341.806 1062.88 333.702 1083.99 316.452 1101.54 C 289.668 1128.8 251.928 1139.9 214.67 1140.23 C 214.35 1153.45 217.512 1179.44 210.848 1190.42 C 193.239 1193.03 171.64 1190.99 153.688 1190.85 z"/>
<path transform="translate(0,0)" fill="rgb(96,6,3)" d="M 153.688 1190.85 C 152.264 1191.02 151.379 1191.03 149.951 1190.7 C 148.263 1190.31 147.507 1189.27 146.758 1187.67 C 145.891 1185.83 145.774 1183.53 145.765 1181.53 L 146.072 1008.15 L 146.119 953.885 C 146.113 946.715 145.255 938.832 145.847 931.776 C 145.959 930.435 146.416 929.299 146.903 928.063 C 149.419 925.655 150.846 924.971 154.371 924.898 C 207.877 923.787 269.306 928.596 310.078 967.605 C 329.705 986.383 341.029 1011.23 341.438 1038.39 C 341.806 1062.88 333.702 1083.99 316.452 1101.54 C 289.668 1128.8 251.928 1139.9 214.67 1140.23 C 214.35 1153.45 217.512 1179.44 210.848 1190.42 L 201.979 1189.44 C 203.739 1189.07 209.127 1189.31 210.007 1188.09 C 215.694 1180.16 212.956 1149.58 213 1139 C 222.563 1139.05 251.365 1138 258.233 1131.85 C 259.204 1130.98 258.944 1131.09 258.884 1129.84 C 247.805 1132.66 237.498 1134.9 226.003 1135.2 C 220.616 1135.34 215.128 1134.74 209.773 1135.16 C 210.09 1146.04 212.528 1177.12 207.605 1185.69 C 207.262 1183.8 207.406 1182.4 207.617 1180.52 C 209.36 1165.03 208.327 1149.55 207.991 1134.02 C 246.285 1134.21 283.686 1125.92 311.755 1097.76 C 327.963 1081.51 336.812 1060.61 336.586 1037.59 C 336.345 1013.07 324.274 990.413 306.953 973.532 C 265.897 933.521 205.911 930.315 151.928 930.806 L 151.482 1111.84 L 151.665 1159.11 C 151.697 1167.14 150.923 1176.01 152.16 1183.92 C 154.438 1186.04 155.569 1185.99 158.559 1186.61 C 155.651 1187.41 155.271 1187.71 152.483 1186.7 C 150.504 1184.07 150.215 1181.63 150.072 1178.43 C 149.319 1161.51 149.985 1144.24 149.988 1127.29 L 149.957 1027.53 L 149.937 970.267 C 149.936 960.695 149.059 950.156 150.352 940.712 C 150.776 937.609 150.804 931.399 153.172 929.608 C 162.881 927.742 173.891 929.169 183.724 929.665 C 223.206 931.657 260.456 937.843 293.949 960.551 C 309.995 971.43 331.018 995.767 334.749 1015.43 C 335.414 1018.94 335.819 1025.76 338.38 1028.14 C 340.877 1017.9 329.914 996.748 324.608 987.989 C 307.256 959.341 270.96 940.75 239.372 933.348 C 215.893 927.846 193.937 926.947 170.098 927 C 163.338 927.015 156.542 926.009 149.878 927.403 L 148.517 928.58 C 146.171 966.249 148.577 1004.72 147.969 1042.5 C 147.434 1075.8 147.117 1108.96 147.206 1142.29 C 147.238 1154.35 146.123 1167.06 147.062 1179.04 C 147.337 1182.55 147.862 1185.25 149.918 1188.13 C 152.935 1189.78 157.017 1189.06 160.384 1188.89 C 158.745 1190.18 155.739 1190.4 153.688 1190.85 z"/>
<path transform="translate(0,0)" fill="rgb(96,6,3)" d="M 207.618 979.755 C 228.553 981.306 252.801 993.02 266.877 1008.66 C 274.701 1017.36 280.215 1028.45 279.24 1040.4 C 278.169 1053.52 270.156 1063.66 260.473 1071.79 C 245.485 1083.94 226.375 1089.4 207.416 1090.58 C 206.828 1072.31 207.646 1053.79 207.697 1035.49 C 207.748 1016.92 207.086 998.31 207.618 979.755 z"/>
<path transform="translate(0,0)" fill="rgb(254,254,254)" d="M 213.523 986.463 C 231.841 990.821 250.873 999.041 263.275 1013.8 C 269.684 1021.43 273.908 1030.31 272.801 1040.48 C 271.45 1052.9 263.37 1061.71 254.157 1069.27 C 241.965 1078.04 228.281 1082.26 213.624 1084.68 C 212.985 1051.99 213.456 1019.16 213.523 986.463 z"/>
<path transform="translate(0,0)" fill="rgb(96,6,3)" d="M 548.831 923.474 C 583.085 922.444 617.411 927.293 649.013 941.044 C 679.757 954.422 708.039 975.086 720.384 1007.35 C 728.46 1028.45 727.292 1050.45 717.911 1070.88 C 703.355 1102.59 676.083 1121.43 644.246 1133.4 C 627.504 1138.77 611.01 1141.7 593.505 1143.21 C 593.421 1151.42 595.606 1183.38 591.595 1187.86 C 586.715 1193.32 546.79 1191.49 538.726 1191.26 C 536.338 1191.19 529.105 1191 527.602 1188.8 C 526.066 1186.56 526.268 1182.37 526.175 1179.67 C 524.309 1125.78 525.722 1071.31 525.628 1017.38 L 525.594 962.28 C 525.609 951.019 524.309 937.434 527.078 926.52 C 531.848 922.019 542.676 923.505 548.831 923.474 z"/>
<path transform="translate(0,0)" fill="rgb(146,40,38)" d="M 532.069 929.245 C 564.747 928.04 599.029 929.92 630.204 940.261 C 661.996 950.807 696.405 971.383 711.758 1002.43 A 76.1676 76.1676 0 0 1 715.503 1061.63 C 705.522 1090.62 681.383 1109.96 654.677 1123.01 C 633.407 1133.23 612.074 1132.96 589.953 1138.69 C 586.042 1142.49 587.162 1177.87 587.022 1185.18 C 567.852 1187.99 551.061 1186.86 531.927 1186.06 C 530.48 1144.76 531.895 1102.87 531.904 1061.52 C 531.912 1017.52 530.583 973.211 532.069 929.245 z"/>
<path transform="translate(0,0)" fill="rgb(96,6,3)" d="M 590.96 982.104 A 64.1692 64.1692 0 0 1 597.36 982.105 C 617.567 983.152 642.611 995.708 655.733 1011.06 C 662.682 1019.19 666.843 1029.1 665.812 1039.91 C 664.433 1054.36 655.208 1063.61 644.692 1072.38 C 626.374 1083.53 608.714 1090.59 587.018 1089.99 C 587.008 1076.94 586.758 988.652 588.625 984.617 C 589.105 983.579 590.182 982.942 590.96 982.104 z"/>
<path transform="translate(0,0)" fill="rgb(254,254,254)" d="M 593.77 987.646 C 594.117 987.664 594.466 987.672 594.813 987.702 C 614.379 989.392 638.819 1000.87 651.676 1015.88 C 657.325 1022.47 660.813 1030.57 659.811 1039.37 C 658.473 1051.13 650.573 1059.2 641.953 1066.4 C 626.639 1077.13 611.229 1082.06 592.962 1085.41 A 2600.59 2600.59 0 0 1 593.77 987.646 z"/>
<path transform="translate(0,0)" fill="rgb(96,6,3)" d="M 1751.48 926.187 C 1761.5 925.13 1811.78 924.052 1817.87 928.491 C 1819.19 944.743 1818.57 961.36 1818.64 977.673 L 1818.72 1060.79 C 1818.56 1101.33 1820.48 1143.79 1818.42 1184.13 C 1818.24 1187.74 1817.91 1191.53 1816.05 1194.73 C 1815.31 1196.03 1813.33 1198.38 1811.8 1198.49 C 1807.56 1198.82 1801.76 1193.64 1798.69 1190.92 C 1780.17 1174.5 1763.85 1154.58 1746.33 1136.97 C 1718.07 1108.58 1688.57 1081.32 1659.98 1053.23 L 1659.59 1172.25 C 1659.65 1178.63 1659.15 1184.87 1658.56 1191.22 C 1643.75 1191.63 1605.38 1193.14 1592.77 1189.74 C 1591.36 1186.6 1591.22 1183.16 1591.1 1179.75 C 1590.49 1162.55 1591.14 1145.16 1591.13 1127.94 L 1591.04 1022.72 C 1591.03 1002.96 1588.86 946.67 1592.26 931.923 C 1597.54 927.3 1615.6 928.466 1622.57 928.153 C 1622.66 928.217 1622.76 928.284 1622.86 928.346 C 1636.76 937.161 1649.64 952.398 1661.62 963.842 A 8951.23 8951.23 0 0 1 1750.45 1049.82 C 1750.22 1034.72 1749.43 932.667 1751.48 926.187 z"/>
<path transform="translate(0,0)" fill="rgb(146,40,38)" d="M 1778.48 930.427 C 1783.45 927.382 1807.07 931.297 1813.61 932.009 C 1814.3 947.232 1813.73 962.741 1813.74 977.991 L 1813.36 1080.07 L 1813.17 1143.62 C 1813.11 1159.97 1813.65 1176.43 1811.12 1192.63 C 1796.19 1183.18 1777.77 1160.41 1764.81 1147.23 C 1752.17 1134.39 1662.75 1045.24 1656.29 1044.09 C 1654.45 1045.84 1654.02 1047.08 1653.82 1049.64 C 1652.94 1060.67 1653.95 1072.6 1654 1083.72 L 1654.3 1157.35 C 1654.32 1164.79 1656.19 1178.86 1653.43 1185.34 C 1653.27 1185.7 1653.03 1186.02 1652.83 1186.37 C 1637.53 1190.51 1613.07 1186.82 1597 1185.98 L 1597.24 934.851 A 2081.24 2081.24 0 0 0 1621.22 933.846 L 1721.69 1030.54 C 1733.13 1041.43 1744.18 1052.82 1755.8 1063.49 C 1756.81 1051.98 1756.13 1040.13 1756.32 1028.57 C 1756.84 996.306 1756.39 964.157 1756.32 931.905 C 1763.62 930.92 1771.12 930.802 1778.48 930.427 z"/>
<path transform="translate(0,0)" fill="rgb(96,6,3)" d="M 1119.53 924.267 C 1136.71 923.15 1155.17 923.403 1172.32 924.965 C 1213.49 928.715 1257.7 945.336 1284.57 978.124 C 1300.31 997.324 1306.78 1024.65 1304.2 1049.09 C 1301.25 1077.1 1285.78 1096.67 1264.35 1113.82 C 1273.74 1134.65 1287.8 1154.11 1299.15 1173.96 C 1301.33 1177.77 1306.5 1185.87 1305.37 1190.06 C 1299.19 1194.25 1287.84 1192.56 1280.49 1192.4 C 1267.7 1192.27 1250.57 1195.1 1238.43 1191.82 C 1230.64 1189.72 1210.27 1145.51 1204.62 1135.96 C 1196.47 1137.03 1188.19 1137.49 1180.01 1138.18 C 1179.98 1148.6 1182.94 1183.49 1176.57 1190.09 C 1175.22 1191.49 1173.83 1192.11 1171.93 1192.32 C 1166.47 1192.95 1159.97 1192.06 1154.43 1191.97 C 1143.55 1191.8 1132.66 1192.05 1121.77 1191.95 C 1118.88 1191.92 1114.01 1192.23 1111.98 1190.16 C 1109.46 1159.35 1111.99 1127.37 1111.92 1096.42 A 6902.05 6902.05 0 0 1 1112.06 974.586 C 1112.1 963.229 1111.06 951.8 1111.36 940.464 C 1111.45 937.108 1111.52 932.817 1112.93 929.719 C 1114.38 926.512 1116.52 925.62 1119.53 924.267 z"/>
<path transform="translate(0,0)" fill="rgb(146,40,38)" d="M 1118.26 930.13 C 1140.12 928.62 1163.74 929.078 1185.37 932.508 C 1221.69 938.271 1261.27 955.114 1283.2 985.996 C 1296.18 1004.27 1302.65 1029.9 1298.82 1052.08 C 1294.28 1078.41 1276.57 1097.04 1255.44 1111.79 C 1259.34 1120.44 1265.05 1128.77 1269.91 1136.92 L 1300.2 1187.03 L 1283.94 1187.06 A 1484.49 1484.49 0 0 1 1238.81 1186.6 C 1228.14 1167.67 1218.81 1148.1 1207.65 1129.36 C 1196.73 1130.84 1185.98 1131.95 1174.96 1132.42 C 1174.59 1150.57 1176.81 1167.98 1175.02 1186.2 C 1155.65 1186.52 1136.24 1186.17 1116.86 1186.1 C 1116.44 1133.53 1117.62 1080.88 1117.93 1028.3 C 1118.12 995.653 1116.85 962.726 1118.26 930.13 z"/>
<path transform="translate(0,0)" fill="rgb(96,6,3)" d="M 1173.95 983.666 C 1174.34 983.66 1174.72 983.642 1175.1 983.647 C 1194.46 983.873 1218.01 993.762 1231.31 1008 C 1239.19 1016.44 1244.52 1027.32 1243.67 1039.08 C 1242.83 1050.68 1236.31 1059.69 1227.59 1066.88 C 1214.07 1079.7 1191.61 1081.65 1174.09 1081.86 C 1173.44 1070.75 1173.95 1059.29 1173.93 1048.14 L 1173.95 983.666 z"/>
<path transform="translate(0,0)" fill="rgb(254,254,254)" d="M 1179.44 989.326 C 1196.39 993.159 1214.99 999.486 1227.13 1012.56 C 1233.27 1019.19 1237.67 1027.62 1237.22 1036.86 C 1236.71 1047.25 1230.72 1055.23 1223.44 1062.06 C 1209.35 1072.05 1196.79 1074.89 1179.76 1076.37 C 1178.43 1047.49 1179.36 1018.25 1179.44 989.326 z"/>
<path transform="translate(0,0)" fill="rgb(96,6,3)" d="M 1434.84 921.407 C 1469.2 919.156 1506.9 931.539 1533.2 953.759 C 1561.69 977.835 1579.83 1011.49 1582.87 1048.8 C 1585.72 1083.78 1572.62 1119.9 1549.8 1146.37 C 1524.98 1175.18 1491.95 1191.69 1454.25 1194.56 C 1419.81 1197.32 1384.83 1184.68 1358.25 1163.11 A 137.297 137.297 0 0 1 1307.39 1070.41 C 1303.83 1033.92 1315.51 999.832 1338.64 971.656 C 1363.26 941.648 1396.55 925.282 1434.84 921.407 z"/>
<path transform="translate(0,0)" fill="rgb(146,40,38)" d="M 1428.5 928.359 C 1459.66 924.51 1495.58 933.583 1521.17 951.808 C 1549.67 972.113 1570.29 1005.15 1575.81 1039.73 C 1581.16 1073.18 1572.07 1106.7 1552.28 1133.99 C 1530.4 1164.17 1498.35 1182.22 1461.87 1187.87 C 1426.32 1190.81 1394.61 1182.67 1365.85 1161.28 A 128.886 128.886 0 0 1 1314.32 1074.42 C 1309.52 1039.75 1319.34 1006.14 1340.53 978.517 A 130.737 130.737 0 0 1 1428.5 928.359 z"/>
<path transform="translate(0,0)" fill="rgb(96,6,3)" d="M 1440.32 983.337 C 1457.37 981.635 1476.55 988.458 1490.12 998.541 A 74.5084 74.5084 0 0 1 1519.23 1048.39 C 1521.93 1068.6 1516.03 1088.48 1503.58 1104.53 C 1490.3 1121.66 1471.94 1129.08 1450.94 1131.88 C 1432.6 1132.51 1415.32 1127.77 1400.42 1116.88 C 1384.81 1105.48 1373.28 1088.18 1370.52 1068.9 A 73.5084 73.5084 0 0 1 1384.59 1014.39 C 1398.66 995.984 1417.71 986.35 1440.32 983.337 z"/>
<path transform="translate(0,0)" fill="rgb(254,254,254)" d="M 1442.18 989.402 C 1457.16 988.435 1473.93 994.777 1485.95 1003.42 A 66.5201 66.5201 0 0 1 1513.37 1047.73 C 1516.15 1065.53 1511.4 1083.39 1500.73 1097.83 C 1488.03 1115 1471.52 1123.02 1450.8 1126.06 C 1432.66 1126.59 1416.02 1122.01 1401.69 1110.64 A 67.2784 67.2784 0 0 1 1376.27 1064.83 C 1374.31 1046.82 1379.7 1029.58 1391.23 1015.65 C 1404.48 999.653 1421.76 991.434 1442.18 989.402 z"/>
<path transform="translate(0,0)" fill="rgb(114,22,22)" d="M 151.638 1353.39 C 143.761 1331.17 137.377 1308.36 130.705 1285.76 C 127.408 1274.59 124.826 1261.49 119.455 1251.14 C 118.306 1248.92 116.359 1247.75 114.162 1246.77 C 101.606 1241.13 85.7818 1242.97 72.6211 1245.07 C 69.2818 1245.61 64.8393 1246.88 61.547 1246.78 C 59.0948 1246.7 58.7362 1245.7 57.4018 1243.94 C 55.6445 1236.47 65.0279 1223.36 68.9013 1217.13 C 81.3538 1197.11 94.5918 1178.59 116.532 1168.38 C 119.391 1168.82 119.35 1168.99 121.311 1171.16 C 121.516 1172.62 122.072 1173.32 120.988 1174.51 C 118.499 1177.24 113.387 1179.21 110.049 1180.94 C 92.0725 1190.23 74.7625 1220.22 66.0163 1238.1 C 88.1661 1233.81 108.537 1232.85 128.022 1246.12 C 146.579 1258.75 155.902 1281.42 159.65 1302.82 C 162.731 1320.42 162.262 1340.27 157.098 1357.44 C 163.54 1355.04 169.59 1352.03 176.344 1355.3 C 200.437 1367 221.171 1429.61 229.078 1455.24 C 231.65 1463.58 234.413 1472.22 235.702 1480.85 C 260.064 1474.04 286.258 1468.61 309.592 1481.87 A 65.6464 65.6464 0 0 1 340.767 1522.56 C 342.099 1527.89 342.284 1533.39 342.451 1538.85 C 361.013 1527.36 378.188 1522.22 399.886 1527.38 A 69.152 69.152 0 0 1 443.619 1559.14 L 444.323 1560.32 C 452.598 1536.28 460.85 1511.69 485.471 1499.85 C 499.395 1493.16 515.681 1491.7 530.35 1496.9 C 545.816 1502.38 557.324 1514.19 563.926 1528.97 C 572.005 1547.05 571.131 1565.29 567.384 1584.29 L 568.504 1586.39 C 571.644 1579.78 575.265 1573.89 580.507 1568.72 C 591.62 1557.75 606.772 1552.62 622.194 1552.71 C 651.329 1552.88 681.419 1568.68 701.589 1589 C 702.529 1566.16 710.549 1547.1 727.096 1531.04 C 749.064 1509.71 783.077 1496.66 813.624 1497.34 C 843.376 1498 874.272 1510.77 894.853 1532.42 C 918.157 1556.93 926.001 1584.05 925.103 1617.14 A 161.444 161.444 0 0 1 964.526 1576.46 C 983.96 1562.38 1011.73 1548.36 1036.51 1552.87 C 1054.82 1556.2 1066.85 1569.03 1077 1583.55 C 1076.68 1573.6 1076.39 1563.6 1078.45 1553.82 C 1083.38 1530.43 1101.55 1509.95 1121.26 1497.4 C 1136.82 1487.49 1158.95 1479.31 1177.54 1483.77 C 1187.91 1486.26 1196.7 1492.53 1202.2 1501.71 C 1209.83 1514.45 1210.82 1530.62 1207.3 1544.78 L 1213.95 1549.75 C 1218.57 1550.14 1223.26 1550.72 1227.89 1550.8 C 1229.17 1550.04 1230.6 1549.52 1231.96 1548.93 C 1234.71 1549.19 1234.91 1549.23 1237.01 1551.02 C 1240.35 1558.16 1238.44 1566.47 1237.49 1573.99 C 1268.21 1551.25 1298.69 1541.46 1337.15 1545.65 C 1370.94 1549.33 1400.39 1563.32 1421.81 1589.99 C 1424.21 1574.23 1429.14 1558.38 1436.91 1544.43 C 1449.55 1521.73 1471.64 1503.61 1496.8 1496.71 C 1516.57 1491.28 1537.74 1492.48 1555.68 1502.88 C 1581.96 1518.12 1594.08 1547.35 1601.33 1575.4 C 1603.36 1570.46 1605.33 1565.42 1607.73 1560.65 C 1615.68 1544.8 1630.35 1530.73 1647.42 1525.33 C 1667.8 1518.87 1687.83 1524.67 1706.08 1534.26 C 1707.09 1515.26 1709.17 1495.77 1723.19 1481.4 C 1730.7 1473.71 1740.58 1469.44 1751.36 1469.71 C 1769.41 1470.17 1783.91 1480.07 1795.96 1492.57 C 1808.36 1472.6 1819.93 1451.89 1831.58 1431.47 C 1830.62 1413.94 1833.2 1399.03 1841.22 1383.25 C 1847.65 1370.59 1856.86 1358.02 1871.01 1353.64 C 1874.74 1352.49 1879.12 1351.33 1882.74 1353.26 L 1881.08 1355.03 C 1881.26 1357.01 1881.67 1357.85 1882.83 1359.46 C 1881.4 1365.43 1878.35 1370.81 1876.09 1376.5 C 1871.74 1387.45 1867.92 1398.71 1863.64 1409.7 C 1862.4 1412.89 1860.63 1415.79 1859.75 1419.11 C 1868.83 1412.16 1876.65 1368.29 1883.39 1364.82 C 1882.8 1370.81 1881.49 1376.14 1878.82 1381.55 C 1874.07 1391.16 1871.06 1401.87 1866.84 1411.74 C 1865.22 1415.55 1859.96 1423.14 1859.79 1427.01 C 1859.76 1427.63 1860.01 1428.24 1860.2 1428.84 C 1860.25 1428.98 1860.39 1429.06 1860.49 1429.17 C 1848.83 1457.23 1833.49 1483.92 1818.35 1510.21 A 906.547 906.547 0 0 1 1380 1893.38 A 932.968 932.968 0 0 1 670.935 1891.09 C 609.457 1865.56 552.833 1832.52 497.955 1795.07 C 472.953 1805.41 449.525 1819.56 425.076 1831.14 C 339.173 1871.81 249.75 1911.86 154.197 1921.76 C 127.34 1924.55 97.6271 1925.45 72.2559 1914.78 C 56.4346 1908.12 44.3038 1896.67 37.9787 1880.58 C 24.0648 1845.18 40.329 1798.28 54.932 1765.44 C 90.3113 1685.88 140.874 1614.6 193.641 1545.82 C 204.693 1531.42 215.154 1516.25 226.731 1502.29 C 212.171 1474.87 195.987 1448.46 182.187 1420.58 A 511.012 511.012 0 0 1 169.113 1391.81 C 166.633 1385.87 164.516 1378.92 161.302 1373.4 C 159.858 1370.92 157.926 1369.35 155.137 1368.58 C 153.453 1368.11 151.525 1368 149.786 1367.82 C 147.937 1363.68 150.485 1357.52 151.638 1353.39 z"/>
<path transform="translate(0,0)" fill="rgb(146,40,38)" d="M 1861.86 1366.92 L 1862.62 1368.09 C 1860.11 1383.69 1846.64 1407.25 1839.29 1421.81 C 1837.94 1420.44 1838.2 1419.31 1838.23 1417.41 C 1838.49 1400.33 1849.73 1378.53 1861.86 1366.92 z"/>
<path transform="translate(0,0)" fill="rgb(146,40,38)" d="M 130.009 1256.97 C 130.693 1257.55 130.84 1257.65 131.548 1258.39 C 150.358 1278.06 155.677 1311.04 154.514 1337.13 C 148.88 1331.48 131.324 1267.59 130.009 1256.97 z"/>
<path transform="translate(0,0)" fill="rgb(252,232,164)" d="M 504.523 1503.17 C 515.311 1502.48 525.38 1503.08 535.019 1508.49 C 550.045 1516.91 556.344 1531.53 560.476 1547.3 C 546.24 1537.51 532.225 1535.11 515.249 1535.65 C 494.213 1536.94 476.439 1541.95 457.203 1550.43 C 460.041 1542.5 462.939 1534.82 467.462 1527.66 C 476.421 1513.5 488.503 1506.75 504.523 1503.17 z"/>
<path transform="translate(0,0)" fill="rgb(252,232,164)" d="M 815.28 1505.14 C 827.144 1505.41 838.02 1508.65 849.023 1512.81 C 811.233 1540.23 770.857 1564.48 731.445 1589.47 C 726.904 1592.55 721.147 1597.41 715.814 1598.69 C 713.292 1599.3 713.092 1598.99 711.014 1597.69 C 708.24 1590.72 711.063 1576.91 712.375 1569.4 C 728.446 1556.84 799.897 1510.27 815.28 1505.14 z"/>
<path transform="translate(0,0)" fill="rgb(252,232,164)" d="M 1149.58 1573.2 C 1160.67 1572.6 1172.5 1571.98 1183.02 1568.08 C 1195.26 1563.55 1202.04 1556.39 1207.3 1544.78 L 1213.95 1549.75 C 1218.57 1550.14 1223.26 1550.72 1227.89 1550.8 C 1228.63 1554.26 1229.45 1557.92 1229.3 1561.47 C 1228.98 1568.44 1224.97 1579.94 1228.36 1586.23 C 1229.2 1587.78 1229.94 1587.58 1231.49 1588.06 C 1238.55 1586.11 1246.16 1577.83 1252.47 1573.71 C 1259.19 1569.32 1266.19 1565.43 1273.26 1561.64 C 1245.19 1592.85 1230.9 1627.82 1220.87 1668.19 C 1206.6 1627.29 1184.12 1598.9 1149.58 1573.2 z"/>
<path transform="translate(0,0)" fill="rgb(252,232,164)" d="M 259.63 1483.44 C 271.212 1482.41 283.224 1481.66 294.522 1484.96 C 315.372 1491.04 332.134 1509.95 333.726 1531.88 C 334.312 1539.95 329.136 1551.67 333.083 1558.66 C 335.158 1559.5 335.428 1559.66 337.387 1558.1 C 339.882 1556.1 342.141 1553.01 344.419 1550.69 C 352.651 1542.32 360.434 1538 371.618 1534.46 C 376.833 1578.01 387.783 1618.91 400.896 1660.65 C 403.072 1667.08 405.552 1673.34 408.111 1679.63 C 395.285 1666.53 382.316 1653.53 370.178 1639.79 C 343.732 1609.85 270.307 1519.49 258.286 1484.96 L 259.63 1483.44 z"/>
<path transform="translate(0,0)" fill="rgb(252,232,164)" d="M 790.479 1621.92 C 793.176 1624 832.718 1717.82 838.54 1729.9 C 865.682 1786.16 895.205 1840.47 930.336 1892.22 C 938.691 1904.53 948.397 1915.9 957.026 1928.02 L 955.91 1928.68 C 945.223 1925.94 934.288 1912.29 926.146 1904.66 C 856.451 1842.68 778.306 1740.25 735.421 1656.53 A 1084.16 1084.16 0 0 1 790.479 1621.92 z"/>
<path transform="translate(0,0)" fill="rgb(201,78,53)" d="M 1449.64 1538.66 C 1470.24 1558.11 1483.16 1584.46 1491.77 1611.12 A 251.304 251.304 0 0 1 1476.67 1802.49 C 1473.65 1808.31 1470.18 1815.08 1465 1819.22 C 1449.1 1831.93 1366.81 1868.37 1346.04 1874.99 C 1330.07 1869.39 1313.96 1864.34 1300.03 1854.41 C 1262.08 1827.34 1233.9 1775.5 1226.19 1730.09 C 1218.14 1682.71 1241.58 1618.47 1268.76 1580 C 1274.34 1572.3 1281.09 1565.26 1286.88 1557.64 C 1294.86 1554.77 1303.36 1554.24 1311.74 1553.55 C 1307.09 1556.81 1302.51 1560.43 1298.35 1564.29 C 1267.33 1593.13 1252.35 1638.91 1250.98 1680.35 C 1249.43 1727.09 1263.7 1776.1 1296.16 1810.54 C 1314.48 1829.98 1339.67 1844.03 1366.82 1844.56 C 1393.54 1845.08 1418.95 1832.74 1437.85 1814.33 C 1469.07 1783.91 1484.84 1736.91 1485.37 1693.99 C 1485.94 1647 1471.46 1596.78 1438.16 1562.52 C 1441.33 1554.13 1444.96 1546.31 1449.64 1538.66 z"/>
<path transform="translate(0,0)" fill="rgb(252,232,164)" d="M 381.407 1533.7 C 387.497 1533.97 393.093 1534.4 399.003 1536.07 C 414.218 1540.35 428.179 1550.39 435.681 1564.45 C 435.983 1565.02 436.266 1565.59 436.568 1566.16 C 441.203 1574.84 436.254 1584.63 441.459 1592.42 C 443.886 1593.54 444.031 1593.42 446.672 1592.85 C 451.576 1588.3 449.531 1580.88 450.694 1574.72 C 451.373 1571.13 452.971 1567.57 454.317 1564.18 C 467.76 1553.83 485.586 1548.13 502.242 1545.96 C 526.771 1542.75 541.534 1545.18 561.52 1560.62 C 561.007 1567.54 556.517 1578.54 559.463 1584.9 C 560.498 1587.13 561.931 1587.47 564.018 1588.3 C 566.558 1587.24 566.294 1586.87 567.384 1584.29 L 568.504 1586.39 C 568.515 1587.14 568.487 1587.88 568.709 1588.62 C 569.425 1590.99 569.969 1591.7 571.967 1592.88 C 578.761 1591.11 583.237 1578.69 588.426 1573.74 C 598.973 1563.68 612.98 1561.07 627.003 1561.11 C 633.684 1566.61 639.716 1573.3 645.874 1579.39 C 622.583 1591.96 600.22 1606.8 577.224 1619.98 C 528.449 1647.95 478.289 1674.71 427.524 1698.86 C 400.982 1647.77 389.1 1590.3 381.407 1533.7 z"/>
<path transform="translate(0,0)" fill="rgb(252,232,164)" d="M 685.25 1585.01 C 692.478 1590.92 697.572 1599.17 702.693 1606.86 C 688.083 1614.7 674.164 1624.46 660.002 1633.12 A 6307.43 6307.43 0 0 1 583.07 1678.79 A 2749.24 2749.24 0 0 1 444.671 1752.83 C 381.246 1784.65 316.147 1815.14 248.726 1837.55 C 212.959 1849.43 144.608 1872.03 109.62 1853.63 C 100.565 1848.87 94.968 1841.71 92.2205 1831.89 C 80.5367 1790.1 121.938 1719.66 142.591 1683.41 C 148.754 1673.55 170.25 1633.41 176.841 1628.09 C 174.769 1636.3 163.867 1651.11 159.441 1659.56 C 145.445 1686.28 131.666 1714.42 123.042 1743.41 C 118.241 1759.55 113.787 1781.14 122.649 1796.64 C 128.097 1806.16 137.631 1811.51 148.06 1814.01 C 210.115 1828.92 326.598 1774.08 384.716 1747.57 A 2543.3 2543.3 0 0 0 543.04 1668.53 C 591.123 1642.04 638.333 1613.5 685.25 1585.01 z"/>
<path transform="translate(0,0)" fill="rgb(252,232,164)" d="M 859.821 1517.75 C 868.676 1518.61 878.35 1527.57 884.854 1533.28 C 868.176 1545.49 850.191 1556.27 832.613 1567.15 L 748.816 1618.44 C 647.982 1680.54 546.366 1741.26 440.554 1794.54 C 374.504 1827.8 306.553 1859.27 235.563 1880.49 C 193.246 1893.13 116.907 1912.77 76.9949 1890.26 C 67.2586 1884.77 61.0608 1876.51 58.4235 1865.65 C 45.6419 1813.04 112.895 1704.42 141.143 1659.98 C 148.248 1648.57 156.017 1634.79 165.619 1625.38 C 165.615 1625.55 120.447 1702.98 115.844 1711.6 C 103.987 1733.8 92.5799 1757.16 85.6664 1781.41 C 80.0015 1801.28 75.6427 1826.83 86.5972 1845.7 C 93.5221 1857.63 105.735 1864.75 118.818 1868.04 C 215.165 1892.25 491.254 1742.64 582.384 1690.61 C 624.669 1666.48 665.491 1640 707.422 1615.31 C 709.105 1618.35 710.896 1622.05 713.076 1624.75 C 714.667 1626.73 715.668 1627.38 718.154 1627.53 C 718.35 1627.27 718.587 1627.04 718.743 1626.76 C 721.074 1622.52 718.002 1614.78 716.777 1610.38 C 744.27 1592.96 771.949 1575.75 799.164 1557.9 C 819.43 1544.61 839.191 1530.47 859.821 1517.75 z"/>
<path transform="translate(0,0)" fill="rgb(254,254,254)" d="M 257.859 1544.64 C 260.398 1546.47 296.627 1597.87 302.269 1605.31 C 331.461 1643.79 365.049 1679.26 398.951 1713.56 C 353.966 1734.81 308.738 1755.08 262.102 1772.48 C 252.155 1775.46 242.396 1779.03 232.416 1781.93 C 212.626 1787.68 167.312 1799.5 148.695 1788.42 C 145.124 1786.29 143.109 1782.99 142.233 1778.98 C 139.919 1768.37 144.575 1754.92 147.777 1744.89 C 170.248 1674.49 217.816 1606.12 257.859 1544.64 z"/>
<path transform="translate(0,0)" fill="rgb(252,232,164)" d="M 726.834 1661.85 C 731.908 1666.38 752.418 1704.22 757.413 1712.28 C 770.441 1733.29 784.102 1754.23 798.621 1774.25 C 840.722 1832.3 884.728 1878.07 935.947 1927.64 A 1164.47 1164.47 0 0 1 767.449 1894.31 C 688.508 1870.33 592.581 1828.11 526.008 1779.36 C 551.479 1763.26 578.527 1749.02 604.69 1734.06 A 6225.56 6225.56 0 0 0 726.834 1661.85 z"/>
<path transform="translate(0,0)" fill="rgb(252,232,164)" d="M 1743.46 1478.16 C 1746.01 1477.87 1748.57 1477.62 1751.13 1477.82 C 1767.92 1479.12 1781.11 1489.04 1791.84 1501.18 C 1777.98 1528.27 1757.6 1554.52 1738.99 1578.58 C 1666.05 1672.86 1585.03 1746.98 1483.78 1809.86 C 1499.36 1779.32 1508.15 1749.27 1511.78 1715.24 A 129.265 129.265 0 0 0 1512.85 1703.03 C 1515.56 1641.84 1498.57 1577.88 1456.72 1531.92 A 75.9039 75.9039 0 0 1 1473.4 1516.79 C 1491.04 1504.91 1512.84 1499.04 1533.93 1503.26 C 1570.38 1510.57 1588.43 1550.24 1594.68 1583.43 C 1595.69 1588.83 1594.99 1597.83 1598.43 1602.22 C 1599.36 1603.41 1600.19 1603.05 1601.56 1603.13 C 1602.18 1602.63 1603.09 1602.35 1603.43 1601.63 C 1604.79 1598.78 1605.03 1592.85 1605.76 1589.52 C 1608.17 1578.67 1612.54 1567.84 1618.57 1558.49 C 1634.14 1534.36 1660.31 1524.4 1687.79 1534.77 C 1694.64 1537.37 1707.8 1546.78 1714.53 1545.29 C 1716.32 1540.74 1715.09 1532.81 1715.2 1527.79 C 1715.42 1517.86 1717.07 1508.06 1721.13 1498.93 C 1725.61 1488.86 1731.89 1482.53 1742.11 1478.66 L 1743.46 1478.16 z"/>
<path transform="translate(0,0)" fill="rgb(201,78,53)" d="M 1326.47 1553.78 C 1343.11 1552.38 1363.49 1558.25 1378.36 1565.42 C 1390.72 1571.39 1411.63 1585.22 1416.22 1598.69 C 1417.68 1602.96 1419.19 1606.84 1422.3 1610.16 C 1424.57 1611.06 1424.58 1611.17 1426.89 1610.44 C 1427.71 1609.57 1428.74 1608.86 1429.34 1607.83 C 1429.52 1607.52 1432.51 1578.1 1433.86 1572.29 A 245.259 245.259 0 0 1 1436.12 1574.61 C 1464.71 1604.36 1476.37 1654.87 1475.39 1695.01 C 1474.28 1740.42 1458.11 1781.3 1424.97 1812.66 C 1422.89 1814.61 1420.63 1816.36 1418.36 1818.08 C 1401.59 1830.79 1379.84 1837.29 1358.88 1834.25 C 1330.61 1830.17 1307.9 1811.91 1291.41 1789.44 C 1264.21 1752.38 1256.18 1701.39 1263.32 1656.66 C 1270.41 1612.27 1290.32 1580.13 1326.47 1553.78 z"/>
<path transform="translate(0,0)" fill="rgb(252,232,164)" d="M 1161.7 1491.28 C 1171.26 1490.55 1179.77 1491.56 1187.55 1497.69 C 1195.37 1503.86 1199.53 1513.4 1200.64 1523.12 C 1201.76 1532.96 1200.46 1542.88 1193.78 1550.59 C 1178.09 1568.7 1152.64 1561.4 1132.05 1562.86 C 1128.36 1563.12 1125.22 1563.63 1122.75 1566.49 L 1123.13 1567.51 C 1125.25 1573.21 1144.22 1580.82 1149.85 1584.5 C 1154.15 1587.32 1158.19 1590.61 1162.09 1593.95 A 163.675 163.675 0 0 1 1199.43 1640.86 C 1206.76 1654.39 1215.33 1672.45 1215.49 1688.13 C 1215.63 1701.09 1214.22 1713.57 1215.69 1726.56 C 1218.12 1748.1 1226.79 1769.96 1236.41 1789.23 C 1257.27 1831.03 1286.08 1865.04 1331.36 1880.16 C 1231.4 1919.33 1079.41 1939.87 972.658 1929.94 C 962.382 1918.61 953.217 1906.34 944.025 1894.13 C 882.944 1809.5 838.525 1713.24 800.061 1616.58 C 834.954 1598.03 867.658 1573.92 901.421 1553.27 C 912.118 1570.9 918.732 1591.17 917.028 1612.04 C 916.436 1619.28 913.711 1627.13 914.28 1634.38 C 914.472 1636.83 914.69 1637.01 916.516 1638.43 C 918.798 1638.26 919.52 1638.37 921.21 1636.63 C 924.44 1633.3 926.954 1627.31 929.854 1623.39 A 194.881 194.881 0 0 1 960.424 1590.18 C 978.293 1575.08 1007.89 1557.96 1032.22 1560.45 C 1050.35 1562.31 1064.62 1578.45 1072.23 1594.01 C 1075.27 1600.24 1077.85 1608.57 1082.37 1613.8 C 1084.06 1615.75 1084.07 1615.28 1086.42 1615.53 C 1090.73 1613.65 1089.62 1612.14 1089.07 1607.73 C 1085.59 1579.55 1081.86 1554.32 1098.91 1529.52 C 1113.86 1507.79 1136.18 1495.88 1161.7 1491.28 z"/>
<path transform="translate(0,0)" fill="rgb(96,6,3)" d="M 1080.6 1651.37 C 1099.58 1649.74 1118.2 1653.9 1134.3 1664.25 C 1154.11 1676.97 1167.45 1697.62 1172.4 1720.5 A 89.5828 89.5828 0 0 1 1159.62 1788.83 C 1144.91 1811.28 1123.72 1821.71 1098.07 1826.89 C 1074.66 1828.31 1052.32 1823.41 1033.5 1808.67 C 1015.9 1794.9 1003.44 1773.22 1000.73 1751.01 C 997.889 1727.67 1005.38 1702.8 1019.81 1684.36 C 1035.36 1664.5 1055.93 1654.5 1080.6 1651.37 z"/>
<path transform="translate(0,0)" fill="rgb(201,78,53)" d="M 1079.04 1659.31 C 1096.9 1656.79 1116.35 1661.48 1131.31 1671.46 C 1148.98 1683.25 1161.31 1703.11 1165.18 1723.89 A 81.3272 81.3272 0 0 1 1152.31 1785.23 C 1138.75 1804.8 1119.24 1814.79 1096.23 1818.91 C 1076.73 1820.53 1058.67 1816.14 1042.43 1805.01 C 1025.27 1793.25 1012.67 1773.7 1009.1 1753.2 C 1005.46 1732.28 1012.2 1709.46 1024.32 1692.32 C 1037.78 1673.27 1056.38 1663.25 1079.04 1659.31 z"/>
<path transform="translate(0,0)" fill="rgb(96,6,3)" d="M 1078.53 1678.26 C 1092.91 1676.61 1107.07 1679.01 1119.5 1686.62 C 1133.9 1695.45 1145.04 1710.46 1148.65 1727.03 C 1152.11 1742.91 1148.23 1760.1 1139.51 1773.68 C 1129.5 1789.3 1114.97 1796.97 1097.23 1800.84 C 1081.31 1802.5 1066.02 1800.63 1052.38 1791.68 C 1039.2 1783.04 1029.85 1767.89 1026.82 1752.53 C 1023.56 1735.94 1027.04 1716.9 1036.78 1702.98 C 1047.12 1688.21 1061.34 1681.32 1078.53 1678.26 z"/>
<path transform="translate(0,0)" fill="rgb(201,78,53)" d="M 1079.27 1686.2 C 1090.1 1684.98 1100.57 1686.07 1110.48 1690.93 C 1123.71 1697.42 1133.94 1709.85 1138.43 1723.82 A 51.5862 51.5862 0 0 1 1134.89 1764.17 C 1126.81 1779.47 1113.96 1787.26 1097.89 1791.94 C 1084.31 1794.22 1070.47 1792.13 1058.58 1785.01 C 1046.39 1777.72 1038.69 1765.97 1035.51 1752.25 C 1032.17 1737.81 1034.73 1721.63 1042.94 1709.24 C 1051.6 1696.19 1064.32 1689.34 1079.27 1686.2 z"/>
<path transform="translate(0,0)" fill="rgb(114,22,22)" d="M 993.663 85.4429 A 912.428 912.428 0 0 1 1493.13 213.839 C 1534.79 238.36 1576.99 266.819 1612.8 299.391 C 1635.14 289.013 1658.4 280.422 1681.39 271.6 C 1747.64 246.177 1816.12 223.125 1886.29 211.454 C 1922.25 205.473 1972.35 198.808 2003.53 221.464 C 2016.69 231.031 2023.58 244.424 2025.9 260.234 C 2040.4 358.911 1911.69 523.673 1854.42 599.782 C 1893.26 666.613 1917.19 744.161 1932.5 819.548 A 804.981 804.981 0 0 1 1939.96 861.59 C 1941.57 872.383 1942.37 883.642 1945.35 894.157 L 1945.74 895.499 A 141.228 141.228 0 0 1 1929.48 897.113 C 1905.38 897.973 1887.78 894.129 1869.8 877.445 C 1864.84 880.477 1859.59 883.763 1853.91 885.209 C 1843.4 887.887 1832.48 884.245 1823.53 878.676 C 1813.34 872.34 1807.38 862.683 1804.93 851.081 C 1798.93 822.595 1809.96 788.509 1825.35 764.738 C 1817.64 767.014 1810.16 769.629 1802.92 773.14 C 1772.6 787.835 1747.16 817.661 1750.72 853.179 C 1751.37 859.686 1755.76 872.653 1753.74 878.575 C 1752.8 877.015 1751.82 878.549 1749.9 878.148 C 1738.53 875.769 1726.79 870.444 1715.87 866.458 C 1691.39 857.521 1667.06 848.511 1643.06 838.338 C 1623.96 859.495 1598.14 894.493 1568.93 900.171 C 1556.5 902.589 1543.89 900.662 1533.34 893.354 C 1519.25 883.584 1513.33 867.493 1510.26 851.419 C 1469.1 870.396 1430.61 881.863 1385.62 887.537 C 1377.57 882.983 1372.87 877.571 1367.29 870.397 C 1365.03 874.34 1362.51 878.101 1358.88 880.941 C 1338.48 896.941 1270.06 889.145 1243.89 886.338 C 1222.1 884.294 1199.66 879.85 1179.96 869.961 C 1160.41 860.144 1148.68 845.434 1141.98 824.832 A 120.854 120.854 0 0 1 1126.98 849.1 C 1109.67 870.702 1086.88 883.317 1059.38 886.303 C 1038.43 888.578 1016.3 887.241 995.216 887.192 C 955.131 887.1 855.877 890.967 825.682 865.548 C 816.914 858.166 812.302 847.934 811.333 836.63 C 809.564 816.003 820.393 799.027 833.182 783.997 C 802.341 792.201 776.286 805.57 751.052 825.173 C 723.197 846.811 698.549 885.243 661.246 889.959 C 653.272 890.967 645.703 889.704 639.315 884.585 C 620.688 869.657 618.636 836.084 616.104 814.235 C 591.36 834.884 591.951 848.988 584.869 878.074 C 581.986 880.7 578.612 882.777 575.388 884.958 C 548.288 885.924 522.097 872.678 496.309 865.976 C 474.939 860.423 453.268 857.739 431.299 856.141 A 221.973 221.973 0 0 0 384.848 857.563 C 366.201 860.015 343.485 868.4 324.863 863.912 C 295.358 856.801 270.04 829.857 254.59 805.161 A 101.522 101.522 0 0 1 254.211 807.589 C 249.618 834.724 239.759 863.364 216.219 879.689 C 185.659 900.881 142.569 899.871 107.549 893.611 C 108.797 846.405 118.51 799.672 131.392 754.375 A 900.985 900.985 0 0 1 333.4 393.559 A 937.608 937.608 0 0 1 993.663 85.4429 z"/>
<path transform="translate(0,0)" fill="rgb(96,6,3)" d="M 622.937 643.922 L 621.8 645.267 L 621.285 644.212 A 2024.1 2024.1 0 0 1 683.366 262.918 C 685.96 253.013 691.076 225.979 695.976 218.783 C 708.298 220.808 716.584 238.87 726.805 244.904 L 728.569 243.792 C 728.85 243.06 729.427 242.379 729.412 241.595 C 729.313 236.543 707.369 223.346 707.057 214.935 L 709 214.728 L 708.648 216.241 C 720.206 230.549 734.72 242.72 747.878 255.544 A 2349.21 2349.21 0 0 1 823.513 332.564 C 833.983 343.764 845.736 355.237 854.798 367.562 C 849.231 366.67 834.698 347.813 830.135 342.789 C 799.29 308.827 766.458 276.953 733.903 244.663 L 733.808 244.762 L 734.34 249.222 C 732.979 250.717 733.653 250.244 732.522 250.898 L 734.124 251.37 L 733.497 251.712 C 749.186 264.948 843.652 359.858 846.846 370.048 L 845.36 370.339 C 832.877 357.973 821.855 343.75 809.792 330.91 A 2375.78 2375.78 0 0 0 747.412 267.862 C 730.944 251.613 714.511 234.843 696.986 219.725 C 688.351 246.91 681.949 274.868 675.281 302.588 A 1854.49 1854.49 0 0 0 633.738 531.388 C 629.068 568.476 623.996 606.547 622.937 643.922 z"/>
<path transform="translate(0,0)" fill="rgb(252,232,164)" d="M 657.194 194.879 C 667.408 194.308 682.895 203.943 692.158 208.269 C 676.485 210.387 660.671 216.175 645.532 220.686 C 624.566 226.934 603.496 232.955 582.778 239.985 C 574.698 242.335 565.883 247.61 557.624 248.398 C 564.775 242.272 574.678 237.801 582.924 233.172 C 607.332 219.47 631.715 206.501 657.194 194.879 z"/>
<path transform="translate(0,0)" fill="rgb(252,232,164)" d="M 853.8 130.536 L 854.491 130.574 C 849.915 134.096 820.67 143.719 812.975 146.905 C 778.03 161.371 732.029 180.583 701.338 201.392 C 695.618 198.2 689.857 195.768 683.756 193.407 L 670.493 188.793 C 730.667 165.568 790.184 142.876 853.8 130.536 z"/>
<path transform="translate(0,0)" fill="rgb(201,78,53)" d="M 1542.53 498.387 C 1546.3 497.924 1550.53 497.959 1554.34 498.066 C 1588.44 499.016 1620.4 515.469 1643.45 540.132 C 1666.48 564.782 1681.73 598.882 1680.72 632.912 C 1672.73 646.114 1660.59 657.479 1650.42 669.05 C 1653.63 658.568 1655.58 648.122 1655.96 637.142 C 1656.98 607.968 1646.62 577.028 1626.31 555.738 A 100.491 100.491 0 0 0 1554.16 524.35 C 1528.45 523.974 1504.61 533.114 1486.24 551.205 C 1462.99 574.091 1453.85 601.64 1453.78 633.782 C 1453.96 642.451 1455.67 651.51 1458.1 659.817 C 1465.87 686.347 1484.81 711.016 1509.34 724.06 C 1534.98 737.689 1561.65 738.779 1588.96 730.246 C 1579.12 740.498 1569.04 750.843 1558.27 760.109 C 1529.46 759.867 1503.51 752.614 1480.67 734.737 A 135.518 135.518 0 0 1 1429.94 644.021 A 136.355 136.355 0 0 1 1458.78 544.349 C 1479.63 518.121 1509.39 502.163 1542.53 498.387 z"/>
<path transform="translate(0,0)" fill="rgb(252,232,164)" d="M 641.269 231.11 L 642.041 231.302 C 641.157 234.169 597.438 261.955 591.699 265.93 A 1476.49 1476.49 0 0 0 446.342 379.781 C 315.16 496.261 208.485 644.723 149.421 810.43 L 148.472 810.546 A 825.241 825.241 0 0 1 220.841 610 A 897.807 897.807 0 0 1 458.766 316.528 C 475.81 302.913 493.795 287.053 512.985 276.533 C 524.521 270.209 538.52 266.093 550.889 261.605 A 2085.9 2085.9 0 0 1 641.269 231.11 z"/>
<path transform="translate(0,0)" fill="rgb(252,232,164)" d="M 1926.12 231.5 C 1927.76 231.316 1929.37 231.197 1931.03 231.135 C 1950.05 230.429 1977.9 229.135 1992.57 243.49 C 2001.21 251.954 2003.17 264.772 2003.24 276.366 C 2004.08 404.035 1755.58 682.99 1665.55 778.327 C 1628.6 817.464 1588.89 853.902 1551.27 892.405 C 1542.22 889.117 1536.81 885.822 1530.56 878.635 C 1544.46 861.611 1560.98 846.402 1576.58 830.941 A 2973.91 2973.91 0 0 0 1785.81 604.833 A 1776.84 1776.84 0 0 0 1893.89 463.847 C 1920.44 424.862 1983.82 329.277 1973.81 281.662 C 1971.46 270.491 1965.18 261.643 1955.65 255.451 C 1915.03 229.056 1850.7 246.161 1806.54 255.666 L 1806.34 254.865 L 1805.25 255.256 L 1805.79 254.483 C 1820.23 252.428 1834.77 246.634 1849.01 243.176 C 1874.22 237.051 1900.27 233.564 1926.12 231.5 z"/>
<path transform="translate(0,0)" fill="rgb(252,232,164)" d="M 1884.49 252.41 C 1904.76 250.829 1936.38 251.391 1952.62 265.423 C 1960.18 271.951 1963.8 281.274 1964.19 291.121 C 1965.27 317.729 1949.69 347.726 1938.05 371.033 C 1902.46 442.299 1852.04 507.229 1801.97 568.798 A 2712.22 2712.22 0 0 1 1626.94 766.041 C 1593.11 801.047 1557.41 834.389 1524.38 870.116 C 1519.84 857.223 1517.53 846.27 1518.66 832.584 C 1532.11 821.332 1544.54 809.244 1557.12 797.057 C 1582.84 770.66 1609.72 745.379 1635.28 718.867 C 1723.56 627.3 1840.11 494.9 1899.44 382.33 C 1911.37 359.704 1925.01 323.547 1916.47 297.954 C 1912.58 286.308 1903.87 278.017 1892.94 272.824 C 1855.46 255.011 1789.08 269.82 1750.79 283.088 L 1749.95 282.661 C 1769.72 269.469 1857.42 254.454 1884.49 252.41 z"/>
<path transform="translate(0,0)" fill="rgb(254,254,254)" d="M 1837.78 290.407 C 1851.33 288.503 1873.62 288.881 1885.25 297.053 C 1890.34 300.631 1893.32 305.776 1894.21 311.903 C 1901.1 359.057 1821.18 462.726 1792.9 500.198 C 1782.24 486.535 1773.16 471.428 1762.59 457.586 C 1731.84 415.291 1696.49 378.444 1660.46 340.754 C 1673.39 335.165 1686.94 330.703 1700.18 325.891 C 1745.34 309.47 1789.87 295.89 1837.78 290.407 z"/>
<path transform="translate(0,0)" fill="rgb(201,78,53)" d="M 1540.74 534.296 C 1560.88 531.134 1582.85 535.731 1600.13 546.403 C 1622.56 560.252 1637.89 582.499 1643.93 608.044 C 1649.74 632.63 1647.31 659.247 1633.78 680.967 C 1619.43 704.015 1598.3 719.698 1571.99 725.773 C 1549.31 730.243 1525.53 723.997 1506.57 711.218 A 99.4516 99.4516 0 0 1 1464.83 647.929 C 1460.02 622.466 1465.47 594.53 1480.24 573.135 C 1494.72 552.161 1515.77 538.739 1540.74 534.296 z"/>
<path transform="translate(0,0)" fill="rgb(252,232,164)" d="M 1834.43 622.723 C 1840.11 629.15 1843.8 642.17 1847.41 650.156 C 1881.78 726.271 1901.27 806.281 1912.25 888.855 C 1900.19 887.063 1889.96 884.901 1881.16 875.678 C 1878.48 872.874 1875.81 869.12 1872.68 866.869 C 1868 863.5 1858.41 877.333 1847.94 878.487 C 1839.76 879.387 1831.89 875.339 1825.66 870.358 C 1802.97 852.208 1811.55 811.418 1821.56 788.366 C 1824.38 781.858 1836.94 764.29 1836.41 758.977 C 1835.64 758.316 1835.1 757.767 1834.1 757.38 C 1825.2 753.94 1804.91 763.369 1796.09 766.67 C 1780.99 773.67 1768.05 784.914 1758.27 798.333 C 1742.02 820.628 1739.9 841.504 1743.92 868.111 C 1712.89 854.792 1680.52 843.99 1649.01 831.767 C 1659.22 820.017 1670.46 809.132 1680.99 797.658 L 1750.96 720.6 C 1779.61 688.708 1806.45 655.195 1834.43 622.723 z"/>
<path transform="translate(0,0)" fill="rgb(252,232,164)" d="M 1001.52 115.428 A 893.276 893.276 0 0 1 1244.97 142.063 C 1455.33 193.346 1661.15 338.775 1773.76 524.465 L 1763.84 536.075 C 1744.85 518.474 1727.03 499.771 1708.21 482.011 C 1672.9 448.673 1635.63 416.399 1596.5 387.597 A 1398.51 1398.51 0 0 0 1535.14 343.738 A 1326.36 1326.36 0 0 0 1289.83 215.046 C 1235.02 193.149 1179.17 173.767 1120.83 163.844 C 986.724 141.035 848.784 176.448 717.739 202.9 C 763.681 176.175 870.297 129.807 921.142 120.906 C 946.966 116.385 975.277 116.66 1001.52 115.428 z"/>
<path transform="translate(0,0)" fill="rgb(201,78,53)" d="M 810.136 389.411 C 810.494 389.373 810.85 389.325 811.209 389.298 C 842.631 386.991 877.522 401.144 901.174 421.253 C 928.872 444.804 947.124 481.625 949.908 517.817 C 952.584 552.603 940.112 589.334 917.393 615.691 A 127.675 127.675 0 0 1 828.838 660.106 A 132.87 132.87 0 0 1 736.713 629.943 A 137.998 137.998 0 0 1 687.613 538.002 A 136.237 136.237 0 0 1 717.99 437.261 C 742.081 408.21 772.851 392.832 810.136 389.411 z"/>
<path transform="translate(0,0)" fill="rgb(96,6,3)" d="M 812.135 419.406 C 835.393 417.756 861.625 427.303 880.071 441.075 C 902.321 457.688 918.337 484.484 922.238 512.004 A 105.507 105.507 0 0 1 902.439 590.183 C 883.792 614.863 859.315 626.842 829.145 631.018 C 801.045 631.808 774.834 624.862 752.855 606.727 A 106.296 106.296 0 0 1 715.22 535.516 A 107.653 107.653 0 0 1 739.483 456.036 C 758.439 433.276 782.985 421.943 812.135 419.406 z"/>
<path transform="translate(0,0)" fill="rgb(201,78,53)" d="M 808.651 428.379 C 830.863 426.062 853.087 432.783 871.258 445.46 A 99.4683 99.4683 0 0 1 912.597 509.453 C 917.07 534.713 912.127 561.317 897.159 582.333 C 880.764 605.353 858.304 617.512 830.795 621.958 C 805.27 622.96 782.486 618.155 761.695 602.542 C 740.909 586.932 727.786 563.592 724.175 537.954 A 97.3456 97.3456 0 0 1 743.622 464.612 C 759.889 443.536 782.441 431.581 808.651 428.379 z"/>
<path transform="translate(0,0)" fill="rgb(252,232,164)" d="M 679.66 241.807 C 679.715 242.117 645.711 394.365 642.187 413.655 C 619.217 539.405 604.835 675.67 615.181 803.383 C 600.991 815.044 588.373 829.656 583.016 847.6 C 580.654 855.514 580.782 869.843 575.42 875.785 C 559.851 880.986 503.375 858.523 483.596 854.42 C 450.393 847.534 413.973 844.783 380.334 849.41 C 361.062 852.061 344.242 858.059 324.428 856.289 C 329.596 845.353 333.356 833.583 337.629 822.27 L 360.002 763.298 C 362.081 757.473 364.383 751.771 366.752 746.059 C 397.675 754.396 420.781 777.696 442.584 799.921 C 447.427 804.858 452.975 812.222 459.071 815.455 C 460.794 814.879 462.447 814.441 463.877 813.277 C 464.212 813.005 465.836 811.505 465.89 811.367 C 466.555 809.672 463.334 803.235 462.568 801.358 C 454.729 782.148 448.585 760.264 449.343 739.325 C 450.971 694.397 490.625 673.578 491.15 664.756 C 487.648 658.983 480.368 660.413 474.49 660.694 C 451.716 661.781 433.18 656.219 412.488 647.035 C 417.384 635.54 424.074 624.389 429.954 613.352 A 1854.18 1854.18 0 0 1 467.524 545.32 A 2038.6 2038.6 0 0 1 679.66 241.807 z"/>
<path transform="translate(0,0)" fill="rgb(252,232,164)" d="M 682.907 221.055 C 682.695 224.438 679.775 227.117 677.724 229.63 C 646.732 267.607 615.732 305.305 586.54 344.719 A 2156.43 2156.43 0 0 0 489.188 490.402 C 458.93 540.052 432.389 591.39 404.287 642.22 C 384.637 630.455 362.675 617.262 349.503 598.052 C 344.708 591.059 340.142 578.567 333.677 573.423 C 332.587 572.555 330.53 571.746 329.109 571.876 C 327.968 573.132 328.043 572.693 327.833 574.568 C 326.515 586.306 347.638 610.51 355.577 618.21 C 387.207 648.884 431.257 670.659 475.801 669.988 C 465.646 679.01 456.336 688.998 450.102 701.172 C 434.05 732.517 440.858 765.214 451.353 797.036 C 417.852 758.032 385.487 732.564 332.031 735.812 C 313.232 736.954 300.084 738.136 282.709 728.781 C 286.736 718.687 290.797 708.869 293.945 698.447 C 297.511 686.644 304.594 648.747 297.996 638.253 C 297.13 636.875 296.526 637.151 295.071 636.867 C 294.168 637.417 293.084 637.744 292.363 638.517 C 291.194 639.769 289.886 678.001 288.646 683.422 C 287.018 690.534 285.264 698.021 282.527 704.806 C 279.978 711.121 275.899 717.638 274.389 724.26 C 273.677 727.382 274.054 730.469 275.982 733.1 C 281.883 741.15 295.688 743.871 305.002 745.381 C 322.454 746.612 340.102 743.397 357.711 744.16 C 342.88 779.522 332.162 816.708 316.93 851.888 C 316.323 851.615 315.713 851.349 315.11 851.069 C 295.219 841.851 272.989 822.439 263.538 802.382 C 259.517 793.848 256.933 784.249 253.704 775.35 C 253.12 775.069 252.318 774.637 251.677 774.565 C 249.376 774.307 248.786 775.156 247.315 776.623 C 245.317 782.033 246.248 787.914 246.274 793.573 C 246.382 817.096 237.626 847.666 220.653 864.687 C 199.091 886.308 167.247 889.022 138.328 889.03 C 144.955 856.065 153.591 824.644 165.302 793.095 C 216.555 655.015 309.415 524.753 414.527 422.414 A 1344.24 1344.24 0 0 1 554.517 304.292 C 591.114 276.918 641.499 240.031 682.907 221.055 z"/>
<path transform="translate(0,0)" fill="rgb(252,232,164)" d="M 696.986 219.725 C 714.511 234.843 730.944 251.613 747.412 267.862 A 2375.78 2375.78 0 0 1 809.792 330.91 C 821.855 343.75 832.877 357.973 845.36 370.339 C 850.312 376.673 855.701 382.502 861.193 388.369 C 825.261 376.733 788.827 377.837 754.85 395.303 C 721.706 412.34 694.943 444.695 683.862 480.21 A 145.529 145.529 0 0 0 694.318 592.064 A 145.828 145.828 0 0 0 782.908 664.508 A 136.8 136.8 0 0 0 886.418 653.188 C 919.516 634.885 943.677 602.588 953.958 566.414 A 117.284 117.284 0 0 0 958.357 541.18 A 33956.5 33956.5 0 0 1 1319.3 881.987 C 1275.2 882.047 1197.19 881.708 1164.84 848.859 C 1154.17 838.027 1148.93 825.246 1149.32 809.968 C 1149.54 801.454 1151.78 791.386 1147.88 783.552 L 1146.22 782.558 C 1142.19 786.128 1136.47 817.671 1131.28 827.24 C 1101.09 882.857 1056.32 878.951 1000.93 879.027 C 972.639 879.066 944.406 879.225 916.15 877.514 C 892.297 876.07 844.102 874.118 827.732 855.83 C 821.372 848.725 818.636 839.61 819.346 830.168 C 820.408 816.049 828.672 799.669 839.403 790.386 C 843.556 786.794 852.433 782.774 853.289 777.078 C 852.169 775.135 851.363 774.433 849.085 773.954 C 844.028 772.891 836.86 774.696 831.859 775.804 C 800.422 782.763 771.553 798.702 746.058 818.086 C 722.877 835.711 686.542 885.04 654.798 881.949 C 648.323 881.319 643.268 877.881 639.406 872.77 C 631.63 862.477 629.705 847.293 627.641 834.911 C 619.435 785.68 619.866 735.495 621.171 685.746 C 621.536 671.842 623.036 657.794 622.937 643.922 C 623.996 606.547 629.068 568.476 633.738 531.388 A 1854.49 1854.49 0 0 1 675.281 302.588 C 681.949 274.868 688.351 246.91 696.986 219.725 z"/>
<path transform="translate(0,0)" fill="rgb(96,6,3)" d="M 1001.06 648.238 L 1012.02 648.131 C 1020.92 672.505 1032.34 705.767 1053.42 722.075 C 1060.43 727.497 1069.29 730.962 1077.66 733.66 C 1087.26 736.752 1099.78 738.246 1108.05 743.997 C 1108.06 746.974 1106.55 748.623 1104.42 750.595 C 1099.72 754.949 1093.7 758.031 1088.31 761.438 C 1079.26 767.154 1070.33 773.648 1062.75 781.246 C 1050.79 793.248 1044.38 811.536 1040.63 827.674 C 1039.29 833.454 1038.48 840.335 1035.85 845.663 C 1033.88 849.652 1029.8 850.515 1025.91 851.903 C 1019.98 846.159 1017.63 833.551 1014.91 825.805 C 1002.39 790.171 981.237 777.037 944.605 773.809 C 937.961 773.224 928.359 773.652 922.392 770.47 C 920.511 769.467 920.439 768.983 919.798 767.085 C 922.702 760.155 948.706 749.719 956.276 744.878 C 985.2 726.383 994.306 709.001 997.828 675.371 C 998.768 666.397 999.1 657.045 1001.06 648.238 z"/>
<path transform="translate(0,0)" fill="rgb(252,232,164)" d="M 1007.58 663.819 C 1012.12 668.992 1015.2 680.319 1018.37 686.843 A 232.627 232.627 0 0 0 1029.33 706.691 C 1044.63 730.93 1065.7 741.078 1093.1 747.315 C 1068.42 762.134 1046.14 781.49 1036.4 809.395 C 1033.18 818.591 1031.64 828.106 1029.18 837.477 L 1027.88 837.369 C 1022.63 819.924 1016.03 803.287 1003.7 789.538 C 985.751 769.537 962.511 766.832 937.169 765.308 C 951.938 757.481 967.074 749.02 979.54 737.796 C 1001.2 718.293 1005.97 691.844 1007.58 663.819 z"/>
<path transform="translate(0,0)" fill="rgb(252,232,164)" d="M 709 214.728 C 724.42 219.299 747.347 235.787 760.688 238.22 L 762.599 236.788 L 760.968 236.081 L 761.391 235.019 C 761.954 233.565 761.769 234.164 762.072 232.746 C 754.041 229.761 722.847 216.464 719.261 210.418 C 719.103 210.152 719.018 209.848 718.897 209.563 C 724.407 207.135 732.25 207.295 738.268 206.199 A 3611.79 3611.79 0 0 0 781.965 197.732 C 891.668 175.666 1022.86 149.288 1133.26 174.587 C 1142.66 176.743 1152.84 176.959 1161.88 180.366 C 1169.96 183.408 1178.27 184.096 1186.56 186.2 C 1190.8 187.276 1195.1 189.381 1199.3 190.784 C 1209.69 194.249 1220.16 197.45 1230.51 201.012 A 1259.51 1259.51 0 0 1 1451.8 301.947 C 1457.45 305.284 1463.5 307.073 1468.7 311.216 C 1474.01 315.442 1481.02 318.706 1486.87 322.2 A 1473.08 1473.08 0 0 1 1516.06 340.302 A 1525.76 1525.76 0 0 1 1603.91 401.569 C 1639.15 428.507 1673.75 458.564 1705.78 489.248 C 1722.52 505.285 1738.35 523.232 1755.81 538.389 L 1754.82 539.284 L 1758.21 541.397 L 1757.77 542.575 C 1741.48 567.864 1710.68 600.68 1690.25 624.72 C 1689 596.414 1676.44 568.35 1659.74 545.781 A 141.082 141.082 0 0 0 1567.21 490.372 C 1535.61 485.775 1502.16 495.194 1476.68 514.23 C 1446.64 536.668 1426.16 572.75 1421.04 609.794 A 143.158 143.158 0 0 0 1449.42 716.165 C 1465.88 737.878 1490.78 756.819 1517.31 764.048 C 1527.66 766.868 1538.62 767.872 1549.24 769.279 A 185.786 185.786 0 0 1 1544.57 774.047 C 1521.39 796.989 1495.24 816.92 1470.39 837.998 C 1459.58 847.172 1442.04 865.162 1430.33 871.067 C 1419.01 876.771 1398.08 878.102 1385.35 878.029 C 1376.6 871.299 1373.44 862.803 1367.93 853.67 L 1366.15 853.596 C 1359.01 859.083 1360.49 866.152 1355.85 872.71 C 1351.21 879.269 1340.36 881.446 1332.84 882.403 L 1331.33 882.589 C 1319.09 868.968 1305.47 856.637 1292.28 843.946 L 1214.42 769.933 A 12247 12247 0 0 0 1099.6 661.723 A 12886 12886 0 0 0 960.049 530.604 C 960.041 527.578 959.866 524.567 959.661 521.549 C 956.87 480.417 938.57 441.792 907.178 414.827 C 898.754 407.591 888.373 402.751 880.161 395.313 C 870.919 386.941 864.251 375.85 854.798 367.562 C 845.736 355.237 833.983 343.764 823.513 332.564 A 2349.21 2349.21 0 0 0 747.878 255.544 C 734.72 242.72 720.206 230.549 708.648 216.241 L 709 214.728 z"/>
<path transform="translate(0,0)" fill="rgb(96,6,3)" d="M 1271.55 581.244 A 59.4483 59.4483 0 0 1 1305.06 588.676 A 57.9379 57.9379 0 0 1 1332.07 624.503 A 56.3745 56.3745 0 0 1 1325.57 667.842 C 1316.43 683.012 1302.63 691.045 1285.8 695.207 C 1270.76 695.834 1257.7 693.964 1245 685.475 C 1232.41 677.068 1224.17 664.454 1221.43 649.546 A 57.906 57.906 0 0 1 1230.96 605.583 C 1240.79 591.694 1255.02 584.047 1271.55 581.244 z"/>
<path transform="translate(0,0)" fill="rgb(201,78,53)" d="M 1268.71 589.188 C 1279.34 588.349 1289.35 589.486 1298.99 594.287 A 49.9862 49.9862 0 0 1 1324.5 624.598 A 47.3746 47.3746 0 0 1 1320.99 661.178 C 1313.89 674.318 1301.95 682.667 1287.85 686.786 C 1276.6 688.462 1266.13 687.804 1255.75 682.708 A 49.7143 49.7143 0 0 1 1230.02 652.717 A 48.6504 48.6504 0 0 1 1233.59 615.744 C 1241.23 601.504 1253.9 593.914 1268.71 589.188 z"/>
<path transform="translate(0,0)" fill="rgb(96,6,3)" d="M 1276.76 608.353 C 1282.75 608.756 1288.23 609.889 1293.39 613.126 A 30.9859 30.9859 0 0 1 1307.41 634.061 C 1308.79 641.873 1307.21 649.509 1302.59 655.978 C 1296.71 664.21 1288.5 667.247 1278.85 668.658 C 1272.05 668.547 1265.52 667.515 1259.78 663.613 C 1253.25 659.172 1249.3 652.264 1248.19 644.496 C 1246.98 636.019 1248.98 627.014 1254.27 620.201 C 1260.1 612.695 1267.58 609.593 1276.76 608.353 z"/>
<path transform="translate(0,0)" fill="rgb(201,78,53)" d="M 1270.95 615.187 C 1275.48 614.576 1280.32 614.165 1284.74 615.603 A 24.5771 24.5771 0 0 1 1299.38 628.853 C 1302.06 634.913 1302.4 641.939 1299.76 648.069 C 1296.57 655.46 1291.26 658.467 1284.16 661.526 C 1279.55 662.075 1274.72 662.469 1270.18 661.222 A 22.41 22.41 0 0 1 1256.19 650.171 C 1253.13 644.352 1252.77 637.186 1254.98 631.02 C 1257.92 622.821 1263.43 618.914 1270.95 615.187 z"/>
<path transform="translate(0,0)" fill="rgb(96,6,3)" d="M 1058.33 183.34 C 1058.81 183.269 1059.29 183.18 1059.77 183.126 C 1083.69 180.438 1109.55 187.154 1128.29 202.449 C 1147.18 217.877 1159.35 242.328 1161.66 266.483 A 92.2027 92.2027 0 0 1 1141.28 334.288 C 1126.34 352.201 1105.21 362.94 1082.03 365.104 A 98.7733 98.7733 0 0 1 1013.97 346.795 C 994.357 332.748 980.673 311.765 976.901 287.83 C 973.175 264.182 979.85 238.573 994.148 219.452 C 1010.03 198.211 1032.5 187.121 1058.33 183.34 z"/>
<path transform="translate(0,0)" fill="rgb(201,78,53)" d="M 1059.42 191.32 C 1081.68 189.346 1104.07 193.471 1121.95 207.535 C 1139.4 221.265 1150.52 243.905 1152.99 265.757 C 1155.45 287.427 1150.24 309.566 1136.45 326.729 C 1121.69 345.105 1102.19 354.155 1079.06 356.607 C 1058.6 359.095 1033.72 350.758 1017.29 338.759 A 81.2149 81.2149 0 0 1 985.042 284.855 C 982.04 263.933 988.361 241.608 1000.99 224.777 C 1015.44 205.517 1035.91 194.833 1059.42 191.32 z"/>
<path transform="translate(0,0)" fill="rgb(96,6,3)" d="M 1063.74 207.373 C 1078.81 206.353 1094.05 209.523 1106.79 217.83 A 68.7722 68.7722 0 0 1 1136.11 261.537 C 1139.7 279.975 1134.97 299.685 1124.4 315.107 C 1112.68 332.212 1096.51 339.326 1076.71 342.971 C 1058.46 343.786 1041.79 339.259 1027.21 328.043 A 66.3324 66.3324 0 0 1 1001.27 282.781 A 67.5862 67.5862 0 0 1 1015.58 232.908 C 1027.87 217.501 1044.42 209.608 1063.74 207.373 z"/>
<path transform="translate(0,0)" fill="rgb(201,78,53)" d="M 1061 216.259 C 1074.4 214.414 1088.06 216.644 1099.76 223.531 A 59.4667 59.4667 0 0 1 1127.39 260.456 A 62.7907 62.7907 0 0 1 1119.67 307.374 C 1109.87 323.261 1095.83 330.186 1078.34 334.328 A 62.3337 62.3337 0 0 1 1037.06 325.229 A 57.5504 57.5504 0 0 1 1010.8 288.011 A 60.5168 60.5168 0 0 1 1019.77 242.036 C 1029.59 227.494 1044.11 219.602 1061 216.259 z"/>
<path transform="translate(0,0)" fill="rgb(96,6,3)" d="M 709 214.728 C 724.42 219.299 747.347 235.787 760.688 238.22 L 762.599 236.788 L 760.968 236.081 L 761.391 235.019 C 761.954 233.565 761.769 234.164 762.072 232.746 C 754.041 229.761 722.847 216.464 719.261 210.418 C 719.103 210.152 719.018 209.848 718.897 209.563 C 724.407 207.135 732.25 207.295 738.268 206.199 A 3611.79 3611.79 0 0 0 781.965 197.732 C 891.668 175.666 1022.86 149.288 1133.26 174.587 C 1142.66 176.743 1152.84 176.959 1161.88 180.366 C 1169.96 183.408 1178.27 184.096 1186.56 186.2 C 1190.8 187.276 1195.1 189.381 1199.3 190.784 C 1209.69 194.249 1220.16 197.45 1230.51 201.012 A 1259.51 1259.51 0 0 1 1451.8 301.947 C 1457.45 305.284 1463.5 307.073 1468.7 311.216 C 1474.01 315.442 1481.02 318.706 1486.87 322.2 A 1473.08 1473.08 0 0 1 1516.06 340.302 A 1525.76 1525.76 0 0 1 1603.91 401.569 C 1639.15 428.507 1673.75 458.564 1705.78 489.248 C 1722.52 505.285 1738.35 523.232 1755.81 538.389 L 1754.82 539.284 L 1758.21 541.397 L 1757.77 542.575 C 1749.44 539.059 1718.06 503.922 1709.4 495.407 C 1675.35 461.938 1637.67 429.693 1599.59 400.901 A 1341.28 1341.28 0 0 0 1293.21 226.742 C 1233.07 201.974 1171.24 180.865 1106.71 171.304 C 1062.09 164.694 1016.35 165.028 971.47 168.51 C 921.107 172.417 869.809 181.67 820.281 191.539 C 786.959 198.179 753.688 205.882 720.017 210.581 C 739.943 221.345 760.956 230.52 781.196 240.762 A 9318.42 9318.42 0 0 1 935.036 319.552 A 13054.8 13054.8 0 0 1 1085.67 399.413 C 1113.18 414.216 1140.28 429.508 1168.17 443.619 C 1168.54 427.603 1169.94 412.832 1175.8 397.8 A 113.956 113.956 0 0 1 1236.68 335.337 C 1261.86 324.454 1288.63 323.39 1314.19 333.713 C 1342.25 345.051 1363.71 368.062 1375.21 395.851 C 1386.17 422.331 1387.13 451.324 1375.79 477.846 A 104.426 104.426 0 0 1 1318.19 534.111 C 1294.53 523.751 1271.32 509.504 1248.49 497.338 A 9950.68 9950.68 0 0 1 1116.95 426.873 A 11208.9 11208.9 0 0 0 884.539 303.87 C 826.435 273.795 768.316 243.096 708.648 216.241 L 709 214.728 z"/>
<path transform="translate(0,0)" fill="rgb(201,78,53)" d="M 1270.68 335.381 A 86.8937 86.8937 0 0 1 1308.16 340.661 C 1334.73 350.479 1355.11 370.984 1366.64 396.653 C 1377.31 420.412 1378.78 448.122 1369.22 472.499 C 1360.47 494.828 1341.46 515.022 1319.42 524.6 C 1314.74 522.297 1310.22 519.557 1305.66 516.996 C 1326.27 506.148 1343.26 491.238 1352.48 469.417 C 1361.4 448.299 1359.53 427.267 1351.05 406.398 C 1344.3 391.929 1334.23 378.732 1321.19 369.391 A 76.99 76.99 0 0 0 1263.1 355.688 C 1240.28 359.514 1219.51 373.331 1206.28 392.214 C 1191.86 412.805 1189.43 433.659 1193.65 457.884 L 1178.01 449.007 C 1177.68 421.787 1180.47 398.835 1197.58 376.606 C 1215.77 352.967 1241.26 339.046 1270.68 335.381 z"/>
<path transform="translate(0,0)" fill="rgb(201,78,53)" d="M 1275.68 363.419 C 1284.44 362.864 1293.8 364.942 1301.9 368.181 C 1321.02 375.827 1335.7 392.045 1343.5 410.886 C 1350.84 428.615 1351.42 448.674 1343.75 466.383 C 1333.93 489.105 1316.87 502.366 1294.42 511.331 L 1282.53 505.175 C 1256.39 490.957 1229.64 477.832 1203.67 463.307 C 1202.66 458.363 1201.57 453.371 1201.07 448.346 A 76.2683 76.2683 0 0 1 1218.83 391.164 C 1233.63 373.591 1253.15 365.232 1275.68 363.419 z"/>
</svg>